<?xml version="1.0" encoding="UTF-8"?>
<svg id="_芞脯_1" data-name="芞脯 1" xmlns="http://www.w3.org/2000/svg" viewBox="0 0 50.22 52.21">
  <defs>
    <style>
      .cls-1 {
        fill: #fff;
      }

      .cls-2 {
        fill: #6eba44;
      }

      .cls-3 {
        opacity: .7;
      }
    </style>
  </defs>
  <g>
    <g class="cls-3">
      <circle class="cls-1" cx="25.11" cy="27.1" r="25.11"/>
    </g>
    <circle class="cls-2" cx="25.11" cy="25.11" r="25.11"/>
  </g>
  <g>
    <path class="cls-1" d="M25.11,39.75c-1.1,0-2-.9-2-2V11.67c0-1.1.9-2,2-2s2,.9,2,2v26.08c0,1.1-.9,2-2,2Z"/>
    <path class="cls-1" d="M25.11,40.56c-.53,0-1.04-.21-1.41-.59l-8.7-8.7c-.78-.78-.78-2.05,0-2.83.78-.78,2.05-.78,2.83,0l7.29,7.29,7.29-7.29c.78-.78,2.05-.78,2.83,0,.78.78.78,2.05,0,2.83l-8.7,8.7c-.38.38-.88.59-1.41.59Z"/>
  </g>
</svg>