<svg id="圖層_1" data-name="圖層 1" xmlns="http://www.w3.org/2000/svg" xmlns:xlink="http://www.w3.org/1999/xlink" viewBox="0 0 79.57 80.52"><defs><style>.cls-1{fill:none;}.cls-2{clip-path:url(#clip-path);}.cls-3{fill:#dd5322;}</style><clipPath id="clip-path" transform="translate(0 0)"><rect class="cls-1" width="79.57" height="80.52"/></clipPath></defs><g class="cls-2"><path class="cls-3" d="M59.73,59.22a10.6,10.6,0,0,0-4.4,1L37.79,40.29H65a3.24,3.24,0,0,0,2.52-1.19,1.73,1.73,0,0,0,.21-.25h0a1.49,1.49,0,0,0,.15-.2s11.71-20,11.71-25.39a13.25,13.25,0,0,0-26.5,0c0,3.69,5.44,14.16,8.9,20.44H30.49A3.31,3.31,0,0,0,28,39.18L50.46,64.64a10.88,10.88,0,0,0-.94,2.22H17.58C21,60.59,26.5,50.1,26.5,46.4A13.25,13.25,0,0,0,0,46.4c0,5.41,11.7,25.39,11.7,25.39a.71.71,0,0,1,.07.09,3.28,3.28,0,0,0,2.81,1.58H49.72a10.64,10.64,0,1,0,10-14.24m.38-46.46A6.21,6.21,0,1,1,66.32,19a6.21,6.21,0,0,1-6.21-6.21M7.05,45.91a6.21,6.21,0,1,1,6.2,6.21,6.2,6.2,0,0,1-6.2-6.21m52.68,28a4,4,0,1,1,4.05-4,4.06,4.06,0,0,1-4.05,4" transform="translate(0 0)"/></g></svg>