<svg id="圖層_1" data-name="圖層 1" xmlns="http://www.w3.org/2000/svg" xmlns:xlink="http://www.w3.org/1999/xlink" viewBox="0 0 39.53 41.62"><defs><style>.cls-1{fill:none;}.cls-2{clip-path:url(#clip-path);}.cls-3{fill:#c85026;}</style><clipPath id="clip-path" transform="translate(0 0)"><rect class="cls-1" width="39.53" height="41.63"/></clipPath></defs><g class="cls-2"><path class="cls-3" d="M0,12.46V18.2a1.41,1.41,0,0,0,1.31,1.31H2.78V11.15H1.31A1.41,1.41,0,0,0,0,12.46" transform="translate(0 0)"/><path class="cls-3" d="M28.06,0H11.48A8.41,8.41,0,0,0,3.11,8.37V33.43a2.74,2.74,0,0,0,2.8,2.63v2.78a2.66,2.66,0,0,0,2.78,2.79h2.79a2.76,2.76,0,0,0,2.8-2.79V36.06H25.43v2.78a2.62,2.62,0,0,0,2.63,2.79h2.79a2.66,2.66,0,0,0,2.77-2.79V36.06a2.64,2.64,0,0,0,2.8-2.63V8.37A8.4,8.4,0,0,0,28.06,0M15.43,2.78h8.68l1.32,2.79H14.28ZM11.64,32a1.16,1.16,0,0,1-1.31,1.15H7.06A1.16,1.16,0,0,1,5.74,32V29.66c0-.65.48-1.13,1.32-1.13h3.27a1.16,1.16,0,0,1,1.31,1.13ZM5.91,8.37H33.62v16.7H5.91ZM33.79,32a1.1,1.1,0,0,1-1.13,1.15H29.21A1.26,1.26,0,0,1,27.89,32V29.66a1.26,1.26,0,0,1,1.32-1.13h3.45a1.1,1.1,0,0,1,1.13,1.13Z" transform="translate(0 0)"/><path class="cls-3" d="M38.23,11.15H36.75v8.36h1.48a1.41,1.41,0,0,0,1.3-1.31V12.46a1.29,1.29,0,0,0-1.3-1.31" transform="translate(0 0)"/></g></svg>