<?xml version="1.0" encoding="UTF-8"?>
<svg xmlns="http://www.w3.org/2000/svg" version="1.1" viewBox="0 0 80 80">
  <defs>
    <style>
      .cls-1 {
        fill: #fff;
      }
    </style>
  </defs>
  <!-- Generator: Adobe Illustrator 28.6.0, SVG Export Plug-In . SVG Version: 1.2.0 Build 709)  -->
  <g>
    <g id="_芞脯_1" data-name="芞脯_1">
      <g>
        <path class="cls-1" d="M79.8,37.8l-16-26.2c-.4-.7-1.3-.9-1.9-.5l-6.2,3.8,11.7,11.7c1.1,1.1,1.7,2.6,1.7,4.1s-.6,3-1.7,4.1l-31.2,31.2,43.2-26.3c.7-.4.9-1.3.5-1.9Z"/>
        <path class="cls-1" d="M64.2,29.8l-21.7-21.7c-.3-.3-.6-.4-1-.4s-.7.1-1,.4L.4,48.2c-.5.5-.5,1.4,0,2l21.7,21.7c.3.3.6.4,1,.4s.7-.1,1-.4l40.2-40.2c.5-.5.5-1.4,0-2ZM23.1,64.5l-15.3-15.3,9.3-9.3c.1,3.9,1.6,7.7,4.6,10.6,3,3,6.9,4.5,10.8,4.6l-9.4,9.4ZM38.9,47.2l-1.9-1.9c-.7.6-1.4,1-2.2,1.2-1,.3-2,.4-3.1.4v-2.9c1.8,0,3.2-.3,4.1-1.2.4-.4.7-1,.7-1.6,0-.6-.2-1.1-.6-1.5-.3-.3-.7-.5-1.2-.6-.5,0-1.1,0-2,.4-1.7.6-3,1-3.7,1.1-.7,0-1.4,0-2-.1-.6-.2-1.1-.5-1.6-1-.8-.7-1.1-1.7-1.1-2.7,0-1.1.4-2.1,1.2-2.9l-1.2-1.2,1.4-1.4,1.3,1.3c.6-.4,1.2-.6,1.7-.8.5-.1,1.3-.2,2.2-.2v2.8c-1.4,0-2.4.3-3,.9-.4.4-.6.8-.6,1.2,0,.4,0,.8.3,1.1.2.2.5.3,1,.4.4,0,1.1-.2,2-.5,1.6-.6,2.7-1,3.4-1.1.7,0,1.4,0,2.1.2.7.2,1.3.6,1.8,1.2.6.6,1,1.2,1.2,1.9.2.7.3,1.4.2,2,0,.6-.4,1.4-1,2.2l2,2-1.4,1.4ZM48.5,39.1c0-3.9-1.6-7.8-4.6-10.8-2.9-2.9-6.8-4.5-10.6-4.6l8.3-8.3,15.3,15.3-8.4,8.4Z"/>
      </g>
    </g>
  </g>
</svg>