<svg width="29" height="43" viewBox="0 0 29 43" fill="none" xmlns="http://www.w3.org/2000/svg">
<g clip-path="url(#clip0_20_5)">
<path d="M15.87 41.43C15.87 41.43 28.42 20.01 28.42 14.21C28.42 6.36 22.06 0 14.21 0C6.36 0 0 6.36 0 14.21C0 20.02 12.55 41.43 12.55 41.43C13.46 42.86 14.96 42.86 15.87 41.43ZM7.56 13.69C7.56 10.02 10.54 7.04 14.21 7.04C17.88 7.04 20.86 10.02 20.86 13.69C20.86 17.36 17.88 20.35 14.21 20.35C10.54 20.35 7.56 17.37 7.56 13.69Z" fill="white"/>
</g>
<defs>
<clipPath id="clip0_20_5">
<rect width="28.42" height="42.5" fill="white"/>
</clipPath>
</defs>
</svg>
