<svg id="圖層_1" data-name="圖層 1" xmlns="http://www.w3.org/2000/svg" viewBox="0 0 50.83 49.5"><defs><style>.cls-1{fill:#fff;}</style></defs><path class="cls-1" d="M41.7,27.75H4.08a2,2,0,0,1-2-2v-21a2,2,0,0,1,2-2H41.7a2,2,0,0,1,1.51.68l9.21,10.5a2,2,0,0,1,0,2.64l-9.21,10.5A2,2,0,0,1,41.7,27.75Zm-35.62-4H40.8l7.46-8.5L40.8,6.75H6.08Z" transform="translate(-2.08 -2.75)"/><path class="cls-1" d="M23.52,46.25a2,2,0,0,1-2-2V25.75a2,2,0,0,1,4,0v18.5A2,2,0,0,1,23.52,46.25Z" transform="translate(-2.08 -2.75)"/><path class="cls-1" d="M38.23,52.25H8.81a2,2,0,0,1-2-2V49.17a6.93,6.93,0,0,1,6.92-6.92H33.31a6.92,6.92,0,0,1,6.92,6.92v1.08A2,2,0,0,1,38.23,52.25ZM11,48.25H36.08a2.92,2.92,0,0,0-2.77-2H13.73A2.93,2.93,0,0,0,11,48.25Z" transform="translate(-2.08 -2.75)"/></svg>