<svg id="芞脯_1" data-name="芞脯 1" xmlns="http://www.w3.org/2000/svg" viewBox="0 0 49.94 49.94"><defs><style>.cls-1{fill:#dd5322;}</style></defs><path class="cls-1" d="M-207.78,369.33H-234.5a11.63,11.63,0,0,1-11.61-11.61V331a11.63,11.63,0,0,1,11.61-11.61h2.67a3.5,3.5,0,0,1,3.5,3.5,3.5,3.5,0,0,1-3.5,3.5h-2.67a4.62,4.62,0,0,0-4.61,4.61v26.72a4.62,4.62,0,0,0,4.61,4.61h26.72a4.62,4.62,0,0,0,4.61-4.61v-2.78a3.5,3.5,0,0,1,3.5-3.5,3.5,3.5,0,0,1,3.5,3.5v2.78A11.63,11.63,0,0,1-207.78,369.33Z" transform="translate(246.11 -319.39)"/><path class="cls-1" d="M-199.67,342.5a3.5,3.5,0,0,1-3.5-3.5V326.33l-12,.06a3.5,3.5,0,0,1-3.5-3.5,3.5,3.5,0,0,1,3.5-3.5h12.06a7,7,0,0,1,6.94,6.94V339A3.5,3.5,0,0,1-199.67,342.5Z" transform="translate(246.11 -319.39)"/><path class="cls-1" d="M-221.74,349a3.46,3.46,0,0,1-2.47-1,3.49,3.49,0,0,1,0-4.95l19.89-19.89a3.49,3.49,0,0,1,4.95,0,3.49,3.49,0,0,1,0,4.95L-219.26,348A3.48,3.48,0,0,1-221.74,349Z" transform="translate(246.11 -319.39)"/></svg>