<?xml version="1.0" encoding="UTF-8"?>
<svg id="_分離模式" data-name="分離模式" xmlns="http://www.w3.org/2000/svg" xmlns:xlink="http://www.w3.org/1999/xlink" viewBox="0 0 50.82 125.85">
  <defs>
    <style>
      .cls-1 {
        fill: #7b7475;
      }

      .cls-2 {
        fill: #8b8b87;
      }

      .cls-3 {
        fill: #fff;
      }

      .cls-4 {
        fill: none;
      }

      .cls-5 {
        fill: #231815;
      }

      .cls-6 {
        fill: #e8420f;
      }

      .cls-7 {
        fill: #a8a8a4;
      }

      .cls-8 {
        clip-path: url(#clippath);
      }
    </style>
    <clipPath id="clippath">
      <path class="cls-4" d="M48.57,7.16L3.72,8.54c-.39.01-.69.39-.68.83l1.52,49.44c.05,1.58,1.2,2.82,2.57,2.78l41.28-1.27c1.37-.04,2.45-1.35,2.4-2.93l-1.52-49.44c-.01-.44-.34-.8-.73-.79"/>
    </clipPath>
  </defs>
  <path class="cls-7" d="M6.93,121.89c.05,2.15-.93,3.91-2.17,3.94h0c-1.24.03-2.29-1.69-2.33-3.84L0,4.9C-.04,2.75.93.99,2.18.96h0c1.24-.02,2.29,1.69,2.33,3.84l2.42,117.09Z"/>
  <path class="cls-2" d="M3.84,121.95c.04,2.15-.23,3.9-.62,3.9h0c-.39,0-.74-1.72-.79-3.87L0,4.9C-.04,2.75.24,1,.63,1h0c.39,0,.74,1.73.78,3.87l2.42,117.09Z"/>
  <g>
    <path class="cls-6" d="M50.09,56.66l-44.85,1.38c-.39.01-.72-.37-.73-.84L2.89,4.4c-.05-1.69,1.02-3.08,2.39-3.13L46.56,0c1.37-.04,2.53,1.29,2.58,2.97l1.62,52.8c.01.47-.29.87-.68.88"/>
    <g class="cls-8">
      <path class="cls-6" d="M48.57,7.16L3.72,8.54c-.39.01-.69.39-.68.83l1.52,49.44c.05,1.58,1.2,2.82,2.57,2.78l41.28-1.27c1.37-.04,2.45-1.35,2.4-2.93l-1.52-49.44c-.01-.44-.34-.8-.73-.79"/>
      <rect class="cls-1" x=".54" y="46.08" width="53.03" height="15.36" transform="translate(-1.48 .77) rotate(-1.59)"/>
    </g>
    <rect class="cls-3" x="4.03" y="35.86" width="46.28" height="11.04" transform="translate(-1.26 .85) rotate(-1.76)"/>
    <rect class="cls-5" x="21.5" y="39.33" width="1.33" height="4.43" transform="translate(-1.27 .7) rotate(-1.76)"/>
    <path class="cls-5" d="M19.99,41.15c-.17-.37-.32-.73-.42-.91-.32-.58-.72-.88-1.34-.87-.62.02-1,.35-1.28.95-.09.18-.22.55-.36.93-.28.73-.5,1.18-.95,1.31l.04,1.45c1.23-.23,1.75-1.05,2.12-2.2.06-.19.14-.41.18-.54.09-.25.15-.4.3-.41.15,0,.22.14.32.39.05.13.14.35.21.53.44,1.13,1.01,1.91,2.25,2.07l-.04-1.45c-.46-.11-.71-.54-1.03-1.25"/>
    <polygon class="cls-5" points="16.01 40.76 15.98 39.52 11.45 39.66 11.49 40.89 13.09 40.85 13.19 44.03 14.52 43.99 14.42 40.8 16.01 40.76"/>
    <path class="cls-5" d="M41.49,38.74l.09,3.01c0,.09-.03.13-.08.13-.06,0-.12-.08-.21-.27-.26-.52-.54-1.09-.82-1.6-.38-.67-.71-1.27-1.57-1.25-.86.03-1.26.62-1.23,1.58l.09,2.94,1.33-.04-.09-3.01c0-.09.03-.13.08-.13.06,0,.12.08.21.27.26.52.54,1.09.82,1.6.38.67.71,1.28,1.57,1.25s1.26-.62,1.23-1.58l-.09-2.94-1.33.04Z"/>
    <path class="cls-5" d="M30.11,41.72c0,.22-.03.4-.2.41-.2,0-.33-.36-.65-1.12-.22-.52-.38-.88-.48-1.06-.28-.58-.75-.88-1.36-.86-.62.02-1.06.35-1.31.94-.08.19-.22.55-.41,1.09-.27.77-.39,1.15-.58,1.15-.17,0-.21-.17-.22-.4l-.08-2.63-1.33.04.09,2.87c.03,1.03.62,1.59,1.48,1.57,1.01-.03,1.39-.73,1.78-1.86.15-.43.24-.7.31-.88.09-.24.18-.4.32-.41.15,0,.25.15.35.39.08.18.19.44.36.86.46,1.1.88,1.77,1.89,1.74.86-.03,1.41-.62,1.38-1.65l-.09-2.87-1.33.04.08,2.63Z"/>
    <path class="cls-5" d="M36.18,40.65c-.17-.37-.32-.73-.42-.91-.32-.58-.72-.88-1.34-.87-.62.02-1,.35-1.28.95-.09.18-.22.55-.36.93-.28.73-.5,1.18-.95,1.31l.04,1.45c1.23-.23,1.75-1.05,2.12-2.2.06-.19.14-.41.18-.54.09-.25.15-.4.3-.41.15,0,.22.14.32.39.05.13.14.35.21.53.44,1.13,1.01,1.91,2.25,2.07l-.04-1.45c-.46-.11-.71-.54-1.03-1.25"/>
    <path class="cls-3" d="M23.35,10.22c-1.03.03-10.59.32-11.61.36-.53.02-.94.46-.93.99l.09,2.78c.02.53.46.94.99.93l11.61-.36c.53-.02.94-.46.93-.99l-.09-2.79c-.02-.53-.46-.94-.98-.93M22.91,13.43l-10.54.32-.05-1.7,10.54-.32.05,1.7Z"/>
    <path class="cls-3" d="M24.58,8.14c0-.07-.02-.1-.08-.1-.25-.02-.49-.06-.73-.12-.95-.24-1.66-.76-2.08-1.64-.02-.05-.08-.08-.13-.08l-1.52.05c-.1,0-.17.11-.12.2.3.65.75,1.17,1.42,1.51,0,0,.03.02.04.02.03.01.05.04.05.08,0,.05-.04.09-.09.09-1.12.03-5.54.17-7.31.22-.08,0-.15.06-.15.15.01.35.03.84.04,1.19,0,.09.07.14.15.14,1.23-.04,5.22-.16,7.47-.23,1.04-.03,1.92-.06,2.44-.08,0,0,.02,0,.03,0,0,0,.02,0,.03,0,.32-.03.57-.3.57-.62,0,0,0,0,0,0h0c0-.32-.02-.65-.02-.77"/>
    <path class="cls-3" d="M15.93,6.27s.03-.05,0-.07c-.02-.02-.06-.03-.13-.03l-1.72.05c-.09,0-.18.03-.25.07-.01,0-.03.02-.04.03l-3.39,3.52s-.04.05-.02.08c.03.03.07.04.14.03l1.66-.05c.06,0,.12,0,.17-.02.07-.01.13-.05.17-.09l3.4-3.53Z"/>
    <path class="cls-3" d="M34.76,6.4l3.4-.1s.06-.03.06-.06v-.44s-.04-.06-.08-.06l-1.29.04s-.04,0-.05-.03l-.04-.13s-.03-.03-.05-.03l-.67.02s-.08.06-.05.09c.03.1,0,.09-.05.1l-1.19.04s-.06.03-.06.06v.44s.04.06.08.06"/>
    <path class="cls-3" d="M38.17,6.47l-3.4.1s-.06.03-.06.06v.44s.04.06.08.06l3.4-.1s.06-.03.06-.06v-.44s-.04-.06-.08-.06"/>
    <path class="cls-3" d="M34.8,7.87l3.4-.1s.06-.03.06-.06v-.44s-.04-.06-.08-.06l-3.4.1s-.06.03-.06.06v.44s.04.06.08.06"/>
    <path class="cls-3" d="M35.16,9.53l2.8-.09c.2,0,.36-.17.35-.37l-.02-.77c0-.2-.17-.36-.37-.35-.2,0-2.35.07-2.8.09-.2,0-.36.17-.35.37l.02.77c0,.2.17.36.38.35M35.34,8.6l2.37-.07v.34s-2.36.07-2.36.07v-.34Z"/>
    <path class="cls-3" d="M41.72,8.27l-2.98.42s-.04.02-.04.05l.02.64s.03.05.06.05l2.98-.42s.04-.03.04-.05l-.02-.64s-.03-.05-.06-.05"/>
    <path class="cls-3" d="M38.75,8.2s.07.02.12.02l1.97-.06h0s.86-.03.86-.03c.03,0,.06-.03.06-.06l-.02-.97s-.03-.06-.06-.06l-.69.02s-.05.02-.06.05l-.02.19c0,.06-.05.12-.11.12l-.88.03,1.64-1.95s0-.06-.03-.06l-.88.03s-.03,0-.05.02c-.19.22-.39.44-.58.67h-.35s0,0,0,0l.56-.61s0-.06-.03-.06l-.92.03s-.03,0-.04.02c-.62.73-.62.74-.62.76v.37s.02.06.07.08c.03.01.06.02.1.02l.7-.02c-.47.53-.84.93-.84.95v.42s.03.06.08.09"/>
    <path class="cls-3" d="M31.36,9.65l2.98-.42s.04-.03.04-.05l-.02-.64s-.03-.05-.06-.05l-2.98.42s-.04.02-.04.05l.02.64s.03.05.06.05"/>
    <path class="cls-3" d="M31.33,8.43s.07.02.12.02l1.97-.06h0s.86-.03.86-.03c.03,0,.06-.03.06-.06l-.02-.97s-.03-.06-.06-.06l-.69.02s-.05.02-.06.05l-.02.19c0,.06-.05.12-.11.12l-.88.03,1.64-1.95s0-.06-.03-.06l-.88.03s-.03,0-.05.02c-.19.22-.39.44-.58.67h-.35s0,0,0,0l.56-.61s0-.06-.03-.06l-.92.03s-.03,0-.04.02c-.62.73-.62.74-.62.76v.37s.02.06.07.08c.03.01.06.02.1.02l.7-.02c-.47.53-.84.93-.84.95v.42s.03.06.08.09"/>
    <path class="cls-3" d="M41.02,11.88c.35,0,.61-.02.74-.17.09-.1.13-.28.11-.48l-.04-1.42c0-.08-.07-.14-.14-.13l-10.22.31c-.08,0-.14.07-.14.15l.02.65c0,.08.07.14.15.14l9.43-.29v.33s-9.42.29-9.42.29c-.08,0-.14.07-.13.14l.06,1.94c0,.08.07.14.14.13l9.43-.29v.34s-7.59.23-7.59.23c-.02,0-.04.03-.03.05l.42.87s.02.02.03.02l7.02-.22s.08,0,.12,0c.41-.01.69-.1.84-.27.1-.12.15-.31.12-.52l-.04-1.32c0-.08-.07-.14-.14-.13l-9.45.29v-.36s8.71-.27,8.71-.27Z"/>
    <path class="cls-3" d="M30.63,10.4l-1.37.04s-.04.01-.05.03l-1.37,4.3s.01.07.05.07l1.37-.04s.04-.01.05-.03l1.37-4.3s-.02-.07-.05-.07"/>
    <path class="cls-3" d="M27.76,9.33c.49.12,1.28.26,2.2.23.19,0,.38-.02.58-.04.03,0,.04-.02.04-.05l-.04-1.21s-.03-.05-.05-.05c-1.04.09-2.53-.15-2.72-.23,0,0,0,0-.01,0-.07,0-.08.05-.08.05h0s0,0,0,0c0,0,0,.01,0,.02l.04,1.25s.02.04.04.05"/>
    <path class="cls-3" d="M27.7,7.21c.49.12,1.28.26,2.2.23.19,0,.38-.02.58-.04.03,0,.04-.02.04-.05l-.04-1.21s-.03-.05-.05-.05c-1.04.09-2.53-.15-2.72-.23,0,0,0,0-.01,0-.07,0-.08.05-.08.05h0s0,0,0,0c0,0,0,.01,0,.02l.04,1.25s.02.04.04.05"/>
    <path class="cls-3" d="M32.71,21.56l.04,1.41s-.02.05-.04.05l-4.51.76s-.05-.02-.05-.05l-.04-1.41s.02-.05.04-.05l4.51-.76s.05.02.05.05"/>
    <path class="cls-3" d="M32.79,24.02l.04,1.41s-.02.05-.04.05l-4.51.76s-.05-.02-.05-.05l-.04-1.41s.02-.05.04-.05l4.51-.76s.05.02.05.05"/>
    <path class="cls-3" d="M30.18,30.52c-.07,0-.14-.06-.14-.13l-.14-4.53,1.47-.27.15,4.76c0,.07-.06.14-.13.14l-1.21.04Z"/>
    <path class="cls-3" d="M39.53,28.7s-.02.05-.05.05h-.4s-4.01.14-4.01.14c-.04,0-.06.04-.04.07l.72,1.36s.03.03.04.02l3.99-.12h.04c.68-.02,1.22-.59,1.2-1.27l-.13-4.11-1.49.05.12,3.81Z"/>
    <path class="cls-3" d="M42.08,22.9s.02,0,.03,0c0,0-.02,0-.03,0"/>
    <polygon class="cls-3" points="42.44 23.3 42.44 23.3 42.44 23.31 42.44 23.3"/>
    <path class="cls-3" d="M39.29,21.97s0-.06.03-.06l1.15-.04s.07.02.09.05c.29.48.73.78,1.3.93,0,0,.02,0,.03,0,.09.02.18.05.27.07.02,0,.05-.01.05-.04l-.05-1.54c0-.06-.06-.11-.12-.11l-8.46.26c-.06,0-.11.06-.11.12l.04,1.3c0,.06.05.11.12.11.8-.02,5.14-.16,6.41-.2.02,0,.03-.02,0-.03-.33-.21-.58-.49-.75-.82"/>
    <path class="cls-3" d="M33.59,24l.04,1.31c0,.08.07.14.15.14l8.35-.26c.08,0,.14-.07.14-.15l-.04-1.3c0-.08-.07-.14-.15-.14l-8.35.26c-.08,0-.14.07-.14.15"/>
    <path class="cls-3" d="M29.02,18.16c-.14-.09-.36-.14-.65-.15-.13,0-.24-.01-.31-.02-.08-.01-.14-.03-.18-.06-.04-.03-.07-.08-.07-.13,0-.05.02-.13.13-.18.08-.04.18-.06.31-.06.15,0,.26.02.34.06.07.04.12.11.14.2h.4c-.03-.19-.11-.32-.24-.42-.15-.1-.36-.15-.64-.14-.18,0-.33.03-.46.09-.13.05-.23.12-.29.21-.07.09-.1.19-.09.3,0,.16.07.28.2.36.14.09.35.13.63.14.14,0,.26.01.33.03.08.02.15.04.18.07.04.04.06.09.07.15,0,.06-.02.15-.15.21-.09.05-.22.07-.37.08-.33.01-.51-.1-.55-.34h-.4c.03.22.12.37.27.48h0c.16.12.4.17.7.16.2,0,.37-.04.51-.1.14-.06.24-.13.32-.23.07-.1.1-.21.1-.33,0-.17-.07-.29-.2-.37"/>
    <polygon class="cls-3" points="29.95 17.24 29.54 17.26 29.6 19.11 30.01 19.1 29.98 18.31 30.9 18.28 30.92 19.07 31.33 19.06 31.27 17.2 30.87 17.22 30.89 17.95 29.97 17.98 29.95 17.24"/>
    <path class="cls-3" d="M32.6,18.73c-.15,0-.28-.03-.37-.12-.1-.08-.15-.2-.16-.33l-.03-1.1h-.41s.03,1.09.03,1.09c0,.16.05.3.13.42.08.12.19.21.33.28.14.06.3.09.48.09.18,0,.34-.05.48-.12.13-.07.24-.17.31-.3.07-.12.11-.27.1-.43l-.03-1.08h-.39s.03,1.11.03,1.11c0,.14-.04.25-.14.34-.09.09-.22.14-.37.14"/>
    <polygon class="cls-3" points="34.65 18.96 35.06 18.94 35.01 17.41 35.78 17.39 35.77 17.07 33.82 17.13 33.83 17.45 34.6 17.43 34.65 18.96"/>
    <polygon class="cls-3" points="36.96 18.89 37.37 18.87 37.32 17.34 38.09 17.32 38.08 16.99 36.13 17.05 36.14 17.38 36.91 17.36 36.96 18.89"/>
    <polygon class="cls-3" points="38.85 16.97 38.44 16.98 38.5 18.84 40.11 18.79 40.1 18.46 38.9 18.5 38.85 16.97"/>
    <polygon class="cls-3" points="42.05 17.2 42.04 16.87 40.41 16.92 40.47 18.78 42.1 18.73 42.09 18.4 40.87 18.44 40.85 17.97 42.07 17.94 42.06 17.61 40.84 17.65 40.83 17.24 42.05 17.2"/>
    <polygon class="cls-3" points="22.83 17.79 23.6 17.76 23.65 19.29 24.06 19.28 24.01 17.75 24.78 17.73 24.77 17.4 22.82 17.46 22.83 17.79"/>
    <path class="cls-3" d="M19,18.67c.12-.04.22-.11.29-.2.07-.1.1-.21.1-.34,0-.11-.03-.2-.09-.28-.05-.08-.13-.15-.22-.19-.1-.05-.2-.07-.32-.06l-1.07.03.06,1.86h.41s-.02-.76-.02-.76h.38s.51.72.51.72h.48s-.56-.75-.56-.75l.06-.02ZM18.91,18.31s-.11.07-.18.07l-.61.02v-.46s.59-.02.59-.02c.07,0,.14.02.18.06.05.04.08.1.08.17,0,.07-.02.13-.07.17"/>
    <rect class="cls-3" x="19.84" y="17.55" width=".4" height="1.86" transform="translate(-.56 .63) rotate(-1.77)"/>
    <path class="cls-3" d="M22.3,18.37c-.14-.09-.36-.14-.65-.15-.13,0-.24-.01-.31-.02-.08-.01-.14-.03-.18-.06-.04-.03-.07-.08-.07-.13,0-.05.02-.13.13-.18.08-.04.18-.06.31-.06.15,0,.26.02.34.06.07.04.12.11.14.2h.4c-.03-.19-.11-.32-.24-.42-.15-.1-.36-.15-.64-.14-.18,0-.33.03-.46.09-.13.05-.23.12-.29.21-.07.09-.1.19-.09.3,0,.16.07.28.2.36.14.09.35.13.63.14.14,0,.26.01.33.03.09.01.15.04.18.07.04.04.06.09.07.15,0,.06-.02.15-.15.21-.09.05-.22.07-.37.08-.33.01-.51-.1-.55-.34h-.4c.03.22.12.37.27.48.16.12.4.17.7.16.2,0,.37-.04.51-.1.14-.06.24-.13.32-.23.07-.1.1-.21.1-.33,0-.17-.07-.29-.2-.37"/>
    <polygon class="cls-3" points="10.79 18.16 11.56 18.13 11.61 19.66 12.01 19.65 11.97 18.12 12.74 18.1 12.73 17.77 10.78 17.83 10.79 18.16"/>
    <path class="cls-3" d="M16.97,18.74c0,.14-.04.25-.14.34-.09.09-.22.14-.37.14-.15,0-.28-.04-.37-.12-.1-.08-.15-.2-.16-.33l-.03-1.1h-.41s.03,1.09.03,1.09c0,.16.05.3.13.42.08.12.19.21.33.28.14.06.3.09.48.09.18,0,.34-.04.48-.12.13-.07.24-.17.31-.3.07-.12.11-.27.1-.43l-.03-1.08h-.39s.03,1.11.03,1.11Z"/>
    <path class="cls-3" d="M14.65,17.8c-.16-.08-.33-.11-.53-.11-.19,0-.37.05-.52.14-.15.09-.27.21-.35.36-.08.15-.12.32-.12.5,0,.18.06.35.15.49.09.14.22.26.37.34.16.08.33.12.53.11.19,0,.37-.05.52-.14.15-.09.27-.21.35-.36.08-.15.12-.32.12-.5,0-.18-.05-.35-.15-.49-.09-.14-.22-.26-.37-.34M14.6,19.11h0c-.1.12-.25.18-.43.19-.18,0-.33-.05-.45-.16-.11-.11-.17-.27-.18-.46,0-.19.04-.35.15-.47.11-.12.25-.18.43-.19.18,0,.33.05.44.16.11.11.17.27.18.46,0,.19-.04.35-.15.47"/>
    <path class="cls-3" d="M23.3,26.06v-.24s-.04-1.2-.04-1.2c0-.02,0-.03.02-.04l1.78-1.31s.02-.03.02-.04l-.04-1.34c0-.08-.07-.14-.15-.14l-7.85.24c-.08,0-.14.07-.14.15l.04,1.22c0,.08.07.14.15.14l5.43-.17c.05,0,.07.06.03.09l-.79.5s-.02.03-.02.04l.06,1.9v.24s0,.04,0,.04l1.51-.05v-.04Z"/>
    <path class="cls-3" d="M21.89,29.22s-.02.05-.05.05h-.4s-4.05.14-4.05.14c-.04,0-.06.04-.04.07l.73,1.38s.03.03.04.03l4.03-.12h.03c.69-.02,1.23-.6,1.21-1.28l-.06-1.8-1.51.05.05,1.5Z"/>
    <path class="cls-3" d="M16.1,22.9l-1.79.06.29-.82s-.01-.07-.05-.07l-1.38.04s-.04.01-.05.03l-.28.85-1.84.06c-.08,0-.14.07-.14.15l.04,1.24c0,.08.07.14.15.14l1.28-.04-.33.99s0,.02-.02.06c0,.02-.01.03-.02.05,0,0,0,0,0,.01-.03.07-.07.17-.11.29,0,.02-.01.03-.02.05,0,0,0,0,0,.01,0,.02-.02.04-.02.07,0,.02-.01.03-.02.05,0,0,0,.02-.01.03-.02.05-.04.09-.05.14,0,0,0,.02,0,.02-.01.03-.02.05-.03.08,0,0,0,.01,0,.02,0,.02-.02.04-.02.06,0,.02-.01.03-.02.05,0,.01-.01.03-.02.04,0,.02-.02.04-.02.06,0,.01-.01.03-.01.04l-.03.07v.03s-.03.04-.04.07v.03s-.03.05-.04.07c0,0,0,.01,0,.02l-.03.07s0,.02-.01.03c0,.02-.02.05-.03.07,0,.01,0,.02-.01.03,0,.02-.02.05-.03.07,0,0,0,.02-.01.03,0,.03-.02.05-.03.07,0,0,0,.01,0,.02,0,.02-.02.04-.03.07,0,0,0,.02-.01.03,0,.02-.02.04-.02.06,0,0,0,.01,0,.02,0,.02-.02.04-.03.07,0,0,0,.01,0,.02,0,.02-.02.04-.02.06,0,0,0,.01,0,.02,0,.02-.02.04-.02.06h0s-.02.05-.02.07c0,0,0,0,0,0,0,.02-.01.04-.02.05,0,0,0,0,0,0,0,.02-.01.03-.02.05,0,0,0,0,0,0,0,.01-.01.03-.02.04,0,0,0,0,0,0,0,.01-.01.02-.02.03,0,0,0,0,0,0v.03s-.01.04-.01.04c.38.15,1.06.45,1.84.8-.52.51-1.1.9-1.68,1.11-.06.02-.1.08-.1.15l.04,1.22c0,.1.1.17.2.14,1.06-.3,2.1-.99,2.97-1.98.7.32,1.38.64,1.93.9.11.05.23-.03.22-.15l-.04-1.26c0-.06-.04-.12-.09-.14l-1.17-.51c.49-.79.83-1.65,1.02-2.51,0-.03.06-.35.07-.47,0-.07.02-.13.02-.2,0-.09-.07-.17-.17-.17l-1.17.04c-.08,0-.15.06-.15.14-.01.15-.03.29-.03.29-.02.1-.04.2-.07.3,0,0,0,0,0,0-.18.68-.48,1.35-.89,1.97l-.97-.42s-.04-.04-.03-.06l1-2.83,2.38-.07c.08,0,.14-.07.14-.15l-.04-1.24c0-.08-.07-.14-.15-.14"/>
    <path class="cls-3" d="M25.13,26.04l-1.83.06-1.51.05-4.71.14s-.06.03-.06.06l.05,1.47s.03.06.06.06l4.71-.14,1.51-.05,1.83-.06s.06-.03.06-.06l-.04-1.47s-.03-.06-.06-.06"/>
    <g>
      <path class="cls-3" d="M12.55,52.24c.45.19,1,.48,1.28.71l-.3.41c-.26-.24-.8-.56-1.26-.76l.29-.36ZM12.54,56.59c.3-.58.74-1.56,1.05-2.39l.42.25c-.28.77-.66,1.69-.94,2.24.03.04.05.08.05.12,0,.02,0,.05-.02.07l-.56-.29ZM14.07,51.03l-.3.39c-.25-.25-.78-.59-1.22-.8l.3-.36c.43.2.97.51,1.22.76v-.15s1.22-.03,1.22-.03l-.02-.73.66.02c0,.05-.04.09-.14.11l.02.59,1.28-.04v.41s-1.27.04-1.27.04l.02.63,1.08-.03v.42s-2.68.08-2.68.08v-.42s1.09-.03,1.09-.03l-.02-.63-1.22.03v-.25ZM16.88,54.54s-.08.07-.16.07c-.09.28-.25.69-.39.97l.95-.2c.02.09.03.17.05.39-1.08.26-2.24.54-2.96.69,0,.06-.04.1-.09.11l-.26-.51c.58-.1,1.4-.28,2.27-.47-.1-.03-.28-.09-.37-.11.12-.29.28-.77.34-1.09l.61.16ZM16.86,52.73l.04,1.52-2.51.07-.04-1.52,2.51-.07ZM14.97,54.47c.19.34.34.78.39,1.08l-.45.14c-.04-.3-.19-.74-.37-1.08l.42-.14ZM16.41,53.89l-.02-.76-1.57.04.02.76,1.57-.04ZM19.61,54.42c-.01.05-.07.07-.15.08-.39.96-1.21,1.8-2.35,2.32-.08-.11-.23-.26-.35-.35,1.07-.44,1.86-1.25,2.24-2.18l.61.13ZM19.32,50.33s-.08.07-.15.08c-.4.64-1.11,1.38-1.77,1.85-.1-.1-.25-.23-.39-.32.64-.42,1.34-1.14,1.72-1.78l.6.17ZM19.43,52.39s-.07.07-.14.08c-.4.65-1.12,1.35-1.88,1.79-.09-.11-.24-.25-.38-.33.71-.38,1.42-1.05,1.79-1.69l.6.16Z"/>
      <path class="cls-3" d="M20.33,52.03c.47.15,1.05.43,1.34.66l-.29.41c-.29-.23-.86-.52-1.33-.7l.28-.36ZM20.33,56.37c.3-.58.74-1.56,1.05-2.39l.42.25c-.28.77-.66,1.69-.94,2.24.03.04.05.08.05.12,0,.02,0,.05-.02.07l-.56-.29ZM20.64,50.04c.46.18,1,.49,1.28.72l-.31.4c-.26-.24-.81-.57-1.27-.77l.29-.36ZM24.44,55.62l-1.81.05.02.61h-.46s-.08-2.97-.08-2.97l.87-.02-.04-1.38-1.19.03v-.46s1.18-.03,1.18-.03l-.04-1.54.63.02c0,.05-.04.08-.15.1l.04,1.41,1.16-.03v.46s-1.15.03-1.15.03l.04,1.38.91-.03.07,2.37ZM23.91,53.7l-1.33.04.04,1.5,1.33-.04-.04-1.5ZM26.99,50.07l.16,5.9c.02.57-.29.6-1.29.62-.03-.12-.11-.33-.19-.45.4,0,.74-.01.84-.01.11-.01.16-.04.15-.15l-.05-1.89-1.28.04c-.07.88-.3,1.81-.96,2.5-.08-.08-.29-.21-.4-.26.89-.91.94-2.2.91-3.24l-.08-3,2.2-.06ZM26.51,50.53l-1.23.03.04,1.32,1.23-.03-.04-1.32ZM25.35,53.11c0,.18,0,.37,0,.57l1.25-.04-.04-1.35-1.23.03.02.79Z"/>
      <path class="cls-3" d="M29.46,52.37c.21.26.78,1.05.9,1.25l-.27.37c-.11-.23-.39-.7-.61-1.05l.1,3.52h-.48s-.1-3.53-.1-3.53c-.23.84-.53,1.64-.86,2.15-.07-.12-.2-.3-.28-.4.43-.64.86-1.85,1.04-2.88l-.97.03v-.45s1.02-.03,1.02-.03l-.04-1.62.63.03s-.04.08-.15.1l.04,1.48.85-.02v.45s-.84.02-.84.02l.02.59ZM33.15,53.79c.1.41.21.77.33,1.07.27-.29.49-.61.64-.95l.55.16s-.06.07-.14.07c-.2.41-.49.79-.85,1.13.25.42.53.65.85.64.23,0,.31-.19.34-.88.1.1.26.19.37.22-.07.83-.24,1.08-.74,1.1-.48,0-.87-.27-1.18-.77-.41.31-.87.59-1.4.81-.06-.09-.2-.24-.3-.31.57-.23,1.08-.52,1.49-.88-.17-.38-.32-.86-.44-1.39l-1.31.04c-.01.15-.02.31-.04.46.41.21.89.5,1.15.7l-.29.35c-.21-.18-.57-.41-.93-.62-.14.66-.4,1.28-.99,1.7-.07-.1-.22-.24-.33-.31.71-.5.91-1.36.96-2.27h-.53s-.01-.39-.01-.39l2.24-.06c-.21-1.08-.32-2.37-.37-3.76l.63.02c0,.05-.04.09-.15.11.03,1.35.15,2.6.36,3.62l1.15-.03c-.21-.15-.49-.32-.75-.44l.25-.25c.31.14.69.34.88.51l-.16.17.63-.02v.41s-1.93.05-1.93.05ZM30.23,52.48l.27-.02c.17-.22.35-.48.53-.76-.21-.24-.57-.52-.87-.73l.22-.27c.06.04.13.08.2.13.17-.32.37-.76.47-1.07l.5.19s-.08.06-.15.06c-.13.29-.35.71-.55,1.02.14.11.28.23.38.34.19-.32.36-.64.49-.9l.49.21s-.08.06-.16.06c-.28.49-.71,1.17-1.09,1.69l.85-.07c-.07-.17-.17-.34-.25-.48l.33-.13c.23.33.43.77.5,1.05l-.35.16c-.02-.08-.04-.17-.08-.27-.56.07-1.08.14-1.45.18,0,.05-.04.08-.09.1l-.19-.47ZM33.21,52.31c.15-.19.32-.44.48-.69-.21-.23-.57-.52-.87-.73l.22-.27.19.12c.18-.32.38-.76.48-1.07l.5.19s-.08.06-.15.06c-.13.29-.36.71-.56,1.01.15.12.29.24.39.35.19-.32.36-.64.49-.9l.48.21s-.08.06-.15.06c-.27.47-.68,1.12-1.05,1.62.29-.02.59-.05.92-.08-.08-.16-.17-.31-.26-.44l.33-.13c.23.33.47.76.54,1.04l-.35.17c-.03-.09-.07-.21-.12-.33-.57.08-1.11.15-1.48.19,0,.06-.05.09-.11.1l-.18-.46.26-.02Z"/>
      <path class="cls-3" d="M37.24,53.77l.85-.39s.03.09.12.43c-.79.38-1.64.79-2.18,1.04,0,.06-.04.1-.08.13l-.27-.54c.29-.12.66-.27,1.07-.45l-.07-2.41-.95.03v-.47s.94-.03.94-.03l-.04-1.59.65.03c0,.05-.04.08-.15.1l.04,1.45.88-.02v.47s-.87.02-.87.02l.06,2.21ZM42.91,52.82l-3.29.09c-.1.19-.21.38-.34.56l3.08-.09h.11s.29.03.29.03l-.03.15c-.09,1.58-.2,2.16-.4,2.38-.18.19-.38.19-.78.2-.13,0-.29,0-.45,0-.01-.12-.05-.3-.13-.4.3.02.58.01.69.01.12,0,.18-.01.24-.08.14-.14.24-.63.31-1.86l-.7.02c-.27.91-.84,1.9-1.47,2.42-.1-.09-.26-.21-.41-.27.62-.44,1.16-1.3,1.44-2.13l-.83.02c-.39.8-1.13,1.65-1.84,2.11-.09-.1-.24-.23-.37-.3.65-.37,1.33-1.08,1.74-1.79l-.84.02c-.32.37-.69.69-1.07.93-.08-.08-.24-.21-.34-.28.61-.37,1.2-.96,1.56-1.62l-1.16.03v-.43s4.98-.14,4.98-.14v.43ZM42.25,49.59l.07,2.37-3.61.1-.07-2.37,3.61-.1ZM41.79,50.6l-.02-.62-2.64.07.02.62,2.64-.07ZM41.82,51.59l-.02-.63-2.64.07.02.63,2.64-.07Z"/>
    </g>
  </g>
</svg>