<svg id="圖層_1" data-name="圖層 1" xmlns="http://www.w3.org/2000/svg" xmlns:xlink="http://www.w3.org/1999/xlink" viewBox="0 0 50.83 49.5"><defs><style>.cls-1{fill:none;}.cls-2{clip-path:url(#clip-path);}.cls-3{fill:#fff;}</style><clipPath id="clip-path" transform="translate(0)"><rect class="cls-1" width="50.83" height="49.5"/></clipPath></defs><g class="cls-2"><path class="cls-3" d="M48.83,25H11.22a2,2,0,0,1-1.51-.68L.5,13.82a2,2,0,0,1,0-2.64L9.71.68A2,2,0,0,1,11.22,0H48.83a2,2,0,0,1,2,2V23A2,2,0,0,1,48.83,25ZM12.12,21H46.83V4H12.12L4.66,12.5Z" transform="translate(0)"/></g><path class="cls-3" d="M29.4,43.5a2,2,0,0,1-2-2V23a2,2,0,0,1,4,0V41.5A2,2,0,0,1,29.4,43.5Z" transform="translate(0)"/><g class="cls-2"><path class="cls-3" d="M44.1,49.5H14.69a2,2,0,0,1-2-2V46.42A6.92,6.92,0,0,1,19.6,39.5H39.19a6.92,6.92,0,0,1,6.91,6.92V47.5A2,2,0,0,1,44.1,49.5Zm-27.27-4H42a2.93,2.93,0,0,0-2.77-2H19.6A2.94,2.94,0,0,0,16.83,45.5Z" transform="translate(0)"/></g></svg>