<?xml version="1.0" encoding="UTF-8"?>
<svg xmlns="http://www.w3.org/2000/svg" version="1.1" viewBox="0 0 80 80">
  <defs>
    <style>
      .cls-1 {
        fill: #fff;
      }
    </style>
  </defs>
  <!-- Generator: Adobe Illustrator 28.6.0, SVG Export Plug-In . SVG Version: 1.2.0 Build 709)  -->
  <g>
    <g id="_芞脯_1" data-name="芞脯_1">
      <g>
        <path class="cls-1" d="M74.4,51.3c-3.1,0-5.6,2.5-5.6,5.6v4.5c0,4.1-3.3,7.4-7.4,7.4H18.6c-4.1,0-7.4-3.3-7.4-7.4V18.6c0-4.1,3.3-7.4,7.4-7.4h4.3c3.1,0,5.6-2.5,5.6-5.6S26,0,22.9,0h-4.3C8.3,0,0,8.3,0,18.6v42.8c0,10.3,8.3,18.6,18.6,18.6h42.8c10.3,0,18.6-8.3,18.6-18.6v-4.5c0-3.1-2.5-5.6-5.6-5.6Z"/>
        <path class="cls-1" d="M68.9,0h-19.3c-3.1,0-5.6,2.5-5.6,5.6s2.5,5.6,5.6,5.6h12.2c0,0-26.7,26.6-26.7,26.6-2.2,2.2-2.2,5.7,0,7.9,1.1,1.1,2.5,1.6,4,1.6s2.9-.5,4-1.6l25.8-25.8v11.4c0,3.1,2.5,5.6,5.6,5.6s5.6-2.5,5.6-5.6V11.1c0-6.1-5-11.1-11.1-11.1Z"/>
      </g>
    </g>
  </g>
</svg>