<?xml version="1.0" encoding="UTF-8"?>
<svg id="_芞脯_1" data-name="芞脯 1" xmlns="http://www.w3.org/2000/svg" viewBox="0 0 39.53 41.62">
  <defs>
    <style>
      .cls-1 {
        fill: #6ab146;
      }
    </style>
  </defs>
  <path class="cls-1" d="M0,12.46v5.74c0,.65.65,1.31,1.31,1.31h1.48v-8.35h-1.48c-.65,0-1.31.65-1.31,1.31Z"/>
  <path class="cls-1" d="M28.06,0H11.48C6.88,0,3.11,3.78,3.11,8.37v25.06c0,1.48,1.31,2.63,2.8,2.63v2.79c0,1.65,1.15,2.78,2.79,2.78h2.78c1.49,0,2.8-1.14,2.8-2.78v-2.79h11.15v2.79c0,1.65,1.14,2.78,2.63,2.78h2.8c1.62,0,2.77-1.14,2.77-2.78v-2.79c1.65,0,2.8-1.15,2.8-2.63V8.37c0-4.59-3.77-8.37-8.37-8.37ZM15.43,2.78h8.68l1.32,2.79h-11.15l1.15-2.79ZM11.64,31.95c0,.67-.48,1.15-1.31,1.15h-3.27c-.84,0-1.32-.48-1.32-1.15v-2.29c0-.65.48-1.14,1.32-1.14h3.27c.82,0,1.31.48,1.31,1.14v2.29ZM5.91,25.07V8.37h27.71v16.71H5.91ZM33.79,31.95c0,.67-.48,1.15-1.14,1.15h-3.45c-.65,0-1.32-.48-1.32-1.15v-2.29c0-.65.67-1.14,1.32-1.14h3.45c.65,0,1.14.48,1.14,1.14v2.29Z"/>
  <path class="cls-1" d="M38.23,11.15h-1.48v8.35h1.48c.65,0,1.31-.65,1.31-1.31v-5.74c0-.65-.5-1.31-1.31-1.31Z"/>
</svg>