<svg xmlns="http://www.w3.org/2000/svg" viewBox="0 0 63.59 53.84"><defs><style>.cls-1{isolation:isolate;}.cls-2{fill:#d4a58d;}.cls-3{fill:#5d2176;opacity:0.1;}.cls-29,.cls-3{mix-blend-mode:multiply;}.cls-4{fill:#ac7f4c;}.cls-5{fill:#ea822f;}.cls-6{fill:#edb230;}.cls-7{fill:#f4d033;}.cls-8{fill:#f5cebf;}.cls-9{fill:#83b0be;}.cls-10{fill:#9cc5d5;}.cls-11{fill:#388dbd;}.cls-12{fill:#47a56a;}.cls-13{fill:#2e69b2;}.cls-14{fill:#2f1c08;}.cls-15{fill:#277642;}.cls-16{fill:#97614d;}.cls-17{fill:#5c8896;}.cls-18{fill:#1d110c;}.cls-19{fill:#da6a65;}.cls-20{fill:#f5d13f;}.cls-21{fill:#e86d2f;}.cls-22{fill:#bb8b72;}.cls-23{fill:#424040;}.cls-24{fill:#d45c2a;}.cls-25{fill:#e7b13b;}.cls-26{fill:#76522f;}.cls-27{fill:#e18a96;}.cls-28{fill:#42366d;}.cls-29{fill:#173172;opacity:0.7;}.cls-30{fill:#302e2c;}.cls-31{fill:#141411;}.cls-32{fill:#5b5b5f;}</style></defs><g class="cls-1"><g id="分離模式"><path class="cls-2" d="M20.8,22.1l.34,2.23A1.93,1.93,0,0,1,19,25.77a2.68,2.68,0,0,1-2.67-1.5V22.46l.2-.43A7.32,7.32,0,0,0,20.8,22.1Z"/><path class="cls-3" d="M21,23.47,20.8,22.1A7.32,7.32,0,0,1,16.53,22l-.13.6A8.57,8.57,0,0,0,21,23.47Z"/><path class="cls-4" d="M36.05,4.59c1.52-.39,4.17.39,4,1.07S36.67,5.88,36.05,4.59Z"/><path class="cls-4" d="M35.14,6.63c1.18-.41,3.31,0,2.92.5A2.44,2.44,0,0,1,35.14,6.63Z"/><path class="cls-4" d="M31.14,9.43a3.37,3.37,0,0,1-2.9-.59,2.87,2.87,0,0,1-.14-4.27l0,0c1-.64,1.68-1.28,1.46-1.69l.06,0a2.63,2.63,0,0,1,3.17-1.27c2.62.64,2.16,4.22,2.16,4.22h0a1.34,1.34,0,0,0,0,.28A7.39,7.39,0,0,0,31.41,9.2l-.16.23Z"/><path class="cls-4" d="M35.13,8.41l-.42,1s1.29,5.87-1.12,8.63l-.34.05a1.47,1.47,0,0,0-.81.23l0,0S31,18,30.3,14.82a7.51,7.51,0,0,1,.95-5.39l.16-.23A7.39,7.39,0,0,1,35,6.05a1.14,1.14,0,0,0,.19.58,1,1,0,0,0-.73.67A1,1,0,0,0,35.13,8.41Z"/><path class="cls-4" d="M35,6.05a1.34,1.34,0,0,1,0-.28,2,2,0,0,1,.14-.49,1.33,1.33,0,0,1,.95-.69c.62,1.29,3.72,1.75,4,1.07s-2.43-1.46-4-1.07a1.23,1.23,0,0,1,.2-1.3c1.59-2.22,6.65-.35,7.93.8a2.27,2.27,0,0,1-.07,3.17A5.43,5.43,0,0,1,42,8.77a13.85,13.85,0,0,1-7.28.65l.42-1a1,1,0,0,1-.72-1.11,1,1,0,0,1,.73-.67,2.44,2.44,0,0,0,2.92.5c.39-.49-1.74-.91-2.92-.5A1.14,1.14,0,0,1,35,6.05Z"/><path class="cls-5" d="M39.88,39.31s0,.13.07.37c0,0-1.37,5.33-5.33,4.58s-3-5.42-3-5.42l0-.05.9-1h0A38.72,38.72,0,0,0,37,38.91l.66.11C38.38,39.14,39.12,39.24,39.88,39.31Z"/><path class="cls-6" d="M40,39.68a15.9,15.9,0,0,1,.19,4.77,5.15,5.15,0,0,1-2.26,4,5.29,5.29,0,0,1-5.44.1,6.35,6.35,0,0,1-1.65-1.29l-.08,0c-.48-2.17-1-4.27-1.6-6.21l.22-.06s1-.91,2.2-2.21l0,.05s-.92,4.67,3,5.42S40,39.68,40,39.68Z"/><path class="cls-7" d="M45.12,25.58c0,.21-.13.59-.26,1.1-.67,2.8-2.47,9.44-5,12.63-.76-.07-1.5-.17-2.2-.29l0-.18c2.3-2.41,5.76-13.45,5.76-13.45v-.06A5,5,0,0,1,45.12,25.58Z"/><path class="cls-8" d="M61.19,23.16a2,2,0,0,1,2.08-.07.61.61,0,0,1,.18.56c-.17,1.25-5.66,7.73-10,8.89-2.72.74-6.4-2.16-6.4-2.16l-.2,0a18.77,18.77,0,0,0-2-3.74h0c.13-.51.22-.89.26-1.1a6.58,6.58,0,0,1,1.51.69c1.53.94,4.48,2.62,5.64,2.47,2.23-.3,7-5.16,7-5.16s-.47-1.28,0-1.85a1,1,0,0,1,1.22,0,5.46,5.46,0,0,1,1.86-.53c.59.08.7.86.7.86l0,0a.8.8,0,0,0-.34-.12,2.59,2.59,0,0,0-2,.74c0,.51.44.44.44.44Z"/><path class="cls-8" d="M63.05,22.08c.42.29.26,1,.26,1l0,0a2,2,0,0,0-2.08.07v0s-.41.07-.44-.44a2.59,2.59,0,0,1,2-.74A.8.8,0,0,1,63.05,22.08Z"/><path class="cls-9" d="M49.64,50.34a2.48,2.48,0,0,1,.75,1.54c0,.27-.7.63-2.09,1L47,53.2a22.71,22.71,0,0,1-5.33.3l-.94-.07h-.1A1.36,1.36,0,0,0,40.92,52v-.13a30.49,30.49,0,0,0,4.23-.31,14.83,14.83,0,0,0,4.25-1.18C49.52,50.35,49.59,50.32,49.64,50.34Z"/><path class="cls-10" d="M40.92,51.88V52c-.13-.13-.46-.07-.46-.07l.71-7.35-1-.14A15.9,15.9,0,0,0,40,39.68c0-.24-.07-.37-.07-.37a11.9,11.9,0,0,0,5.22-.23s3.17,7.56,4.28,11.26l0,0a14.83,14.83,0,0,1-4.25,1.18A30.49,30.49,0,0,1,40.92,51.88Z"/><path class="cls-8" d="M33.25,18.1l.34-.05c2.41-2.76,1.12-8.63,1.12-8.63A13.85,13.85,0,0,0,42,8.77a5.43,5.43,0,0,0,2.12-1.51l0,0s2.82,5.88,3.18,6.17S50.9,16.34,48.63,20a8.32,8.32,0,0,1-6,3.58h0a10.58,10.58,0,0,1-3.59-.1,10.06,10.06,0,0,1-4-1.76L35,21.62a2.06,2.06,0,0,1-3.23-2.28,1.73,1.73,0,0,1,.67-1A1.47,1.47,0,0,1,33.25,18.1Z"/><path class="cls-11" d="M46.9,30.42a2.13,2.13,0,0,1,.14.84,4.91,4.91,0,0,1-1,2.65,44.66,44.66,0,0,0-.89,5.17,11.9,11.9,0,0,1-5.22.23c2.51-3.19,4.31-9.83,5-12.63h0A18.77,18.77,0,0,1,46.9,30.42Z"/><path class="cls-11" d="M36.32,35.83c0-.19-.59-2.42-.59-2.42,1.82-3.46,1.8-6.78,1-7.49l-.2-.07a3.12,3.12,0,0,1,2.37-.27,2.26,2.26,0,0,0,2.23,1.57,1.62,1.62,0,0,0,1.58-1.64V25.4h.13a2.46,2.46,0,0,1,.59-.06v.06S40,36.43,37.7,38.84l0,.18L37,38.91l0-.19Z"/><path class="cls-8" d="M42.75,25.51a1.62,1.62,0,0,1-1.58,1.64,2.26,2.26,0,0,1-2.23-1.57l.09-2,0-.09a10.58,10.58,0,0,0,3.59.1l.1,1.83Z"/><path class="cls-10" d="M41.17,44.59l-.71,7.35a20.74,20.74,0,0,1-9-1.24l0-.06.91-2,0-.05a5.29,5.29,0,0,0,5.44-.1,5.15,5.15,0,0,0,2.26-4Z"/><path class="cls-9" d="M40.92,52a1.36,1.36,0,0,1-.29,1.41.61.61,0,0,1-.14.07,2.31,2.31,0,0,1-.43.09,20.67,20.67,0,0,1-5.93-.33A10.39,10.39,0,0,1,30.83,52s.24-1.74.62-1.41l.06,0,0,.06a20.74,20.74,0,0,0,9,1.24S40.79,51.88,40.92,52Z"/><path class="cls-2" d="M36.32,35.83l.74,2.89,0,.19a38.72,38.72,0,0,1-4.57-1.1h0a38.68,38.68,0,0,0,2.5-3v0S35.81,35.49,36.32,35.83Z"/><path class="cls-8" d="M29.69,36.3a24.64,24.64,0,0,0,2.38-4c1.31-2.56,2.44-5.15,3.52-5.9a7,7,0,0,1,1-.57l.2.07c.76.71,1.29,3.35-.53,6.81a16.88,16.88,0,0,1-1.31,2,38.68,38.68,0,0,1-2.5,3l-.9,1c-1.24,1.3-2.2,2.21-2.2,2.21l-.22.06c-.33-1.15-.67-2.24-1-3.27h0A6.45,6.45,0,0,0,29.69,36.3Z"/><path class="cls-2" d="M31.89,32.23l.18.09a24.64,24.64,0,0,1-2.38,4l-2.41-2.08a9.25,9.25,0,0,0,2.95-3.61l.07,0Z"/><path class="cls-12" d="M30.86,47.9a2.48,2.48,0,0,1,.27,1.4c-.07.19-.68.57-1.87,1a29.08,29.08,0,0,1-6.14,1.32c-.89.11-1.86.2-2.92.27a23.42,23.42,0,0,1-9.53-1.23c-1.33-.49-2.07-1-2.1-1.18a.61.61,0,0,1,.11-.42l1.05.05a25.11,25.11,0,0,0,9.83,1.5c6.82-.39,10.65-2.42,10.65-2.42Z"/><path class="cls-12" d="M11.23,36.3A10.28,10.28,0,0,1,7.36,34c-.57-.52-.93-1-.93-1.23,0-.66.93-1,.93-1s2.42-6,4.8-7.23a4.62,4.62,0,0,1,4.17-.25A2.68,2.68,0,0,0,19,25.77a1.93,1.93,0,0,0,2.14-1.44,5.07,5.07,0,0,1,3.53-.51c1.54.57,5.5,4.89,5.5,4.89s.53.09.62.44a4.41,4.41,0,0,1-.56,1.46,9.25,9.25,0,0,1-2.95,3.61l-.24.13-.09,0c.36,1,.75,2.16,1.16,3.41.33,1,.67,2.12,1,3.27.57,1.94,1.12,4,1.6,6.21l.12.56,0,.07-.65.28s-3.83,2-10.65,2.42a25.11,25.11,0,0,1-9.83-1.5l-1.05-.05a1.09,1.09,0,0,1,.37-.34l1.17-9.87-.09,0C10.52,38,10.89,37.11,11.23,36.3Z"/><path class="cls-13" d="M22.56,6.21a26.38,26.38,0,0,0-9.71,3.94,32.93,32.93,0,0,0-3.63,2.62s0,.1,0,.28c-.05,0-.26-.09-.15-.43a2.22,2.22,0,0,1,.34-.56,36.9,36.9,0,0,1,12.1-8.38,16.33,16.33,0,0,1,5.6-1.31c1.53,0,2.24.15,2.41.47s-.47,1.05-1.46,1.69A41.84,41.84,0,0,1,23,7.19h0Z"/><path class="cls-2" d="M11.76,16.08a12.2,12.2,0,0,0,1.13-5.87l0-.06a26.38,26.38,0,0,1,9.71-3.94l.37,1L25,12.71s2.39,2.79,1.47,5.16a8.31,8.31,0,0,1-5.63,4.52,8.05,8.05,0,0,1-4.48-.09l-.3-.11a6.2,6.2,0,0,1-2.69-2.14c-2.76,2.05-5.11-1.47-3.93-3.17a2.41,2.41,0,0,1,.59-.63A1.72,1.72,0,0,1,11.76,16.08Z"/><path class="cls-11" d="M21.49,3.6l0,.08a36.9,36.9,0,0,0-12.1,8.38,2.22,2.22,0,0,0-.34.56h0A16.82,16.82,0,0,1,7.75,7.77c-.47-4,5.11-8.1,9.52-7.75C20.2.26,21.49,3.6,21.49,3.6Z"/><path class="cls-14" d="M9.24,13.05c0-.18,0-.28,0-.28a32.93,32.93,0,0,1,3.63-2.62l0,.06a12.2,12.2,0,0,1-1.13,5.87,1.72,1.72,0,0,0-1.71.17v-.08A10.38,10.38,0,0,1,9.24,13.05Z"/><path class="cls-2" d="M2.8,46.75v0a12.8,12.8,0,0,0-1.32.06,7.36,7.36,0,0,1-.81.14c-.2,0-.37,0-.44-.09s.5-.86,1-1.08a4.41,4.41,0,0,1,2.05-.23S5.82,37,7.36,34h0a10.28,10.28,0,0,0,3.87,2.31c-.34.81-.71,1.65-1.1,2.5-1.41,3.12-3,6.27-4.37,7.68a3,3,0,0,1-1,.86,2.74,2.74,0,0,1-1,.12c-.66,0-1.35-.13-1.36-.25S2.53,46.82,2.8,46.75Z"/><path class="cls-15" d="M30.77,47.94l0-.07v0h0c-.09-.39-.19-.77-.29-1.16l-.3-1.16-.29-1.17c-.1-.38-.22-.76-.33-1.15l-.32-1.15c-.11-.38-.21-.77-.33-1.14l-.71-2.29c-.12-.39-.22-.76-.36-1.14l-.38-1.14L27,35.22c-.14-.38-.25-.76-.39-1.13l-.82-2.25c-.14-.37-.27-.76-.41-1.13L25,29.6h0a.1.1,0,0,1,.06-.13.1.1,0,0,1,.13.05l.48,1.1c.16.37.3.75.45,1.12L27,34c.15.37.28.76.41,1.13l.39,1.13.39,1.14c.14.37.25.77.37,1.14l.7,2.3c.12.38.21.77.32,1.16l.31,1.16c.1.38.22.77.3,1.16l.27,1.17.26,1.17c.09.38.17.78.25,1.17v0l0,.07h0a.1.1,0,0,1-.06.14A.1.1,0,0,1,30.77,47.94Z"/><path class="cls-15" d="M11.14,36.35s.1-.37.28-.9.44-1.24.73-1.94c.14-.35.29-.69.43-1s.28-.61.4-.87c.24-.51.42-.84.42-.84s0,0,.07,0a.05.05,0,0,1,0,0s-.1.37-.28.9c-.1.27-.2.58-.32.91s-.26.68-.39,1c-.28.7-.58,1.39-.82,1.9-.12.26-.23.47-.3.62l-.13.23a.07.07,0,0,1-.09,0S11.13,36.37,11.14,36.35Z"/><path class="cls-16" d="M3.7,46.75l-.23,0-.25,0a2.14,2.14,0,0,0-.32.08.58.58,0,0,0-.17.06L2.59,47a.14.14,0,0,0-.06.1.13.13,0,0,0,0,.06h0c0,.05,0-.06,0,0h0s0,0,0,0l0,0a1.78,1.78,0,0,0,.42.09,3.91,3.91,0,0,0,.48,0l.5,0a3.33,3.33,0,0,0,.46,0l.2,0a.43.43,0,0,0,.18-.06A2.58,2.58,0,0,0,5.07,47a4.25,4.25,0,0,0,.45-.37l.15-.16a.11.11,0,0,1,.15,0,.1.1,0,0,1,0,.13,2,2,0,0,1-.14.21,3.12,3.12,0,0,1-.45.46,2.82,2.82,0,0,1-.36.24,1.35,1.35,0,0,1-.49.16,2.92,2.92,0,0,1-.51,0H3.37a4.6,4.6,0,0,1-.52-.06,1.9,1.9,0,0,1-.53-.14,1.09,1.09,0,0,1-.11-.09l0-.05v0h0s0-.1,0-.05h0v0a.86.86,0,0,1,0-.17.54.54,0,0,1,.2-.26.85.85,0,0,1,.23-.12.91.91,0,0,1,.21,0,1.72,1.72,0,0,1,.36-.05h.28l.24,0h0a.1.1,0,0,1,.08.12A.08.08,0,0,1,3.7,46.75Z"/><path class="cls-16" d="M2.79,46.81l-.27,0c-.17,0-.41,0-.69.06a2.42,2.42,0,0,0-.45.06l-.53.11-.14,0a.4.4,0,0,1-.15,0A.72.72,0,0,1,.18,47L.12,47l0,0,0,0h0l0,0s0,0,0-.1a.38.38,0,0,1,0-.1v-.06a.81.81,0,0,1,0-.11,1.32,1.32,0,0,1,.19-.29,3,3,0,0,1,.46-.42,2.19,2.19,0,0,1,.54-.3l.26-.08.27-.06a4.79,4.79,0,0,1,.49,0,4.89,4.89,0,0,1,.73,0l.27,0a.1.1,0,0,1,.08.12.11.11,0,0,1-.1.09H3a6.64,6.64,0,0,0-.68,0l-.45.07-.22.06-.25.1a1.5,1.5,0,0,0-.44.25,2.75,2.75,0,0,0-.39.37,1.3,1.3,0,0,0-.13.19,0,0,0,0,0,0,0v0s0,0,0,0l0,0h0a.36.36,0,0,0,.18,0H.67l.14,0,.51-.08a4.12,4.12,0,0,1,.48,0c.3,0,.55,0,.72,0l.27,0a.11.11,0,0,1,.1.11A.11.11,0,0,1,2.79,46.81Z"/><path class="cls-15" d="M7.52,32.16l.53.47c.15.15.34.3.54.48s.42.35.63.54l.64.5.59.41.6.35h0a.1.1,0,0,1,0,.14.12.12,0,0,1-.12,0s-.28-.1-.68-.28c-.19-.11-.41-.23-.64-.38L9,34c-.21-.19-.44-.38-.63-.57S8,33,7.83,32.86a6.69,6.69,0,0,1-.46-.56.09.09,0,0,1,0-.14A.11.11,0,0,1,7.52,32.16Z"/><path class="cls-15" d="M30,29.24s-.11.3-.31.74a12.14,12.14,0,0,1-.87,1.53,7.53,7.53,0,0,1-.57.76,4.69,4.69,0,0,1-.59.59,1.17,1.17,0,0,1-.27.2,1.13,1.13,0,0,1-.22.14l-.21.1a.11.11,0,0,1-.14,0,.11.11,0,0,1,0-.13h0L27,33a1,1,0,0,0,.19-.14,1.52,1.52,0,0,0,.22-.22A5.31,5.31,0,0,0,28,32c.18-.23.36-.49.53-.75s.34-.52.5-.77l.41-.69.4-.68a.11.11,0,0,1,.14,0A.1.1,0,0,1,30,29.24Z"/><path class="cls-15" d="M9.77,49l.85.28,1,.28c.39.08.82.2,1.3.3s1,.21,1.56.27l.85.11.44.07.46,0,.92.06.48,0h.48l1,0h.48l.49,0L22,50.19l1.86-.28c.6-.1,1.18-.24,1.73-.34s1.06-.27,1.53-.39.9-.28,1.28-.39.7-.26,1-.35c.53-.21.82-.35.82-.35h0a.11.11,0,1,1,.09.19s-.29.16-.82.39c-.27.1-.59.25-1,.38s-.8.3-1.28.43-1,.3-1.54.43-1.13.27-1.74.37l-1.89.3-1.95.18-.49,0h-2l-.48,0-.94-.07-.46,0-.45-.07-.86-.13c-.57-.07-1.09-.22-1.57-.31s-.92-.24-1.31-.34-.72-.23-1-.31L9.7,49.2A.1.1,0,1,1,9.77,49Z"/><path class="cls-17" d="M40.48,52c-.38.05-.77.09-1.15.11s-.77,0-1.15,0H37.6l-.57,0-.58,0a5.54,5.54,0,0,1-.57-.07l-1.14-.18-1.12-.27c-.19,0-.38-.09-.56-.15l-.54-.19-1.08-.41h0a.1.1,0,0,1-.06-.13h0l0-.06a.11.11,0,0,1,.14-.05.1.1,0,0,1,.05.13l0,.07-.06-.15,1.09.32.54.17c.18,0,.37.08.55.12l1.11.24,1.12.16a5.39,5.39,0,0,0,.56.08l.57.05.56,0,.57,0c.37,0,.75,0,1.13,0s.75,0,1.13,0a.1.1,0,0,1,.11.1A.1.1,0,0,1,40.48,52Z"/><path class="cls-17" d="M43.77,43a12.59,12.59,0,0,1-1.19,1,7.22,7.22,0,0,1-.65.42,6.56,6.56,0,0,1-.69.37l.11-.15-.16,1.84L41,48.28c-.06.61-.13,1.22-.2,1.84s-.16,1.22-.23,1.82a.1.1,0,0,1-.12.09.1.1,0,0,1-.09-.1c0-.62.07-1.23.12-1.85s.09-1.22.15-1.83l.17-1.84L41,44.58a.16.16,0,0,1,.1-.15h0c.22-.11.45-.2.67-.33s.43-.25.64-.38a11.86,11.86,0,0,0,1.21-.9.1.1,0,0,1,.15,0A.11.11,0,0,1,43.77,43Z"/><path class="cls-17" d="M45.2,39l.21.47c.13.3.34.73.55,1.25s.48,1.12.75,1.78.54,1.35.82,2.06.53,1.41.78,2.07c.13.33.22.66.32,1l.29.87c.33,1.08.56,1.8.56,1.8a.1.1,0,0,1-.07.12.1.1,0,0,1-.13-.06h0s-.26-.71-.66-1.77c-.09-.26-.2-.55-.31-.85s-.21-.63-.35-1c-.25-.66-.53-1.36-.8-2.06s-.53-1.41-.79-2.06-.49-1.28-.7-1.8L45,39.12A.1.1,0,1,1,45.2,39Z"/><path class="cls-17" d="M40.73,53.33l.89,0,1,0,1.32,0c.48,0,1-.07,1.55-.11l.84-.13c.29-.06.57-.08.86-.16.6-.15,1.2-.28,1.8-.49a4.9,4.9,0,0,0,.85-.35,1.21,1.21,0,0,0,.32-.24s0,0,0,0,0-.08,0-.08a1.08,1.08,0,0,0,0-.19,3.44,3.44,0,0,0-.38-.83,1.09,1.09,0,0,0-.13-.17l0-.06h0c-.09,0-.08,0-.16,0l-.22.09a12.61,12.61,0,0,1-1.79.61,14.84,14.84,0,0,1-1.73.36c-.55.12-1.09.15-1.56.21s-.94.07-1.33.1l-1,0c-.28,0-.51,0-.66,0h-.23a.11.11,0,0,1-.11-.1.11.11,0,0,1,.11-.11h.23l.65,0c.28,0,.63,0,1-.06s.83-.07,1.31-.14,1-.11,1.54-.23,1.12-.2,1.69-.38a13.41,13.41,0,0,0,1.75-.6l.22-.1a1.22,1.22,0,0,1,.3-.08h.12l.11.06.11.11a1.12,1.12,0,0,1,.16.22,3.89,3.89,0,0,1,.44.92,1.72,1.72,0,0,1,0,.29.43.43,0,0,1,0,.16.56.56,0,0,1-.09.19.82.82,0,0,1-.22.2,1.35,1.35,0,0,1-.22.14,6,6,0,0,1-.92.39c-.62.2-1.24.33-1.83.48s-1.2.19-1.75.27-1.09.07-1.58.08-.94,0-1.34,0l-1,0-.89-.07a.1.1,0,0,1-.09-.12A.1.1,0,0,1,40.73,53.33Z"/><path class="cls-17" d="M40.45,51.83a.8.8,0,0,1,.43,0c.2.06.21.27.24.41a1.83,1.83,0,0,1-.08.8.88.88,0,0,1-.09.2.55.55,0,0,1-.13.18l-.08.08,0,0h0l0,0,0,0h-.07l-.09,0-.19,0-.09,0H40l-.38,0c-.25,0-.5.06-.75.06h-.77c-.26,0-.51,0-.77,0l-.76-.06c-.25,0-.5,0-.76-.05l-.75-.12-.75-.13a5.85,5.85,0,0,1-.75-.16,6.68,6.68,0,0,1-.73-.21c-.25-.09-.5-.15-.73-.26s-.47-.19-.7-.31l-.67-.38a.13.13,0,0,1-.07-.14,8,8,0,0,1,.19-.85,2.41,2.41,0,0,1,.16-.42.46.46,0,0,1,.15-.2.24.24,0,0,1,.16-.07.27.27,0,0,1,.17.07.11.11,0,0,1,0,.14.11.11,0,0,1-.13,0h0l0,0,0,0a.85.85,0,0,0-.09.14,2.22,2.22,0,0,0-.12.39A7.21,7.21,0,0,0,31,52l-.07-.14.66.34c.22.11.45.19.68.28a5.93,5.93,0,0,0,.71.24c.23.07.47.14.72.19a6.36,6.36,0,0,0,.73.16l.74.11.74.11c.24,0,.49,0,.74.06l.75.06c.25,0,.5,0,.75,0h.74c.25,0,.5,0,.75,0l.38,0h0s0,0,0,0h.14l.19,0,.09,0h0l0,0,0,0h0s0,0,0,0l.05-.05a.36.36,0,0,0,.1-.11.69.69,0,0,0,.07-.15,1.54,1.54,0,0,0,.1-.68c0-.06,0-.09,0-.14l0,0v0h0l0,0-.05,0a.62.62,0,0,0-.31,0h0a.12.12,0,0,1-.12-.09A.1.1,0,0,1,40.45,51.83Z"/><path class="cls-16" d="M12.14,17.71,12,17.63a1.62,1.62,0,0,0-.29-.19,1.49,1.49,0,0,0-.43-.17,1,1,0,0,0-.24,0,1,1,0,0,0-.23.07l-.09.05-.12.1-.12.09-.07.09-.07.09-.06.1a.52.52,0,0,0-.09.2,1.75,1.75,0,0,0-.08.45.09.09,0,0,1-.07.12.11.11,0,0,1-.13-.08.8.8,0,0,1,0-.15.51.51,0,0,1,0-.18.69.69,0,0,1,0-.24A1.62,1.62,0,0,1,10,17.7l.06-.14.1-.14.11-.13.12-.1.11-.1.17-.11a1,1,0,0,1,.36-.1,1.38,1.38,0,0,1,.36,0,1.49,1.49,0,0,1,.52.27,1.71,1.71,0,0,1,.38.39.1.1,0,0,1,0,.14A.11.11,0,0,1,12.14,17.71Z"/><path class="cls-18" d="M18.33,13.42c.11.39,0,.76-.24.83s-.54-.18-.65-.56,0-.75.24-.83S18.21,13,18.33,13.42Z"/><path class="cls-18" d="M23.28,11.31c.14.37.06.75-.18.84s-.54-.14-.69-.51-.06-.75.18-.84S23.14,10.93,23.28,11.31Z"/><path class="cls-16" d="M20.13,9.15s.28.43.67,1.11.89,1.59,1.33,2.54a9.91,9.91,0,0,1,.57,1.45,1.1,1.1,0,0,1,.05.43.36.36,0,0,1,0,.09v0l0,0h0l-.05.07-.18.14a2.3,2.3,0,0,1-.64.24,3.18,3.18,0,0,1-1,.07,1.53,1.53,0,0,1-.38-.06h0a.1.1,0,0,1-.06-.13.09.09,0,0,1,.12-.06,1.19,1.19,0,0,0,.33,0,3.44,3.44,0,0,0,.89-.13,1.62,1.62,0,0,0,.52-.23c.05,0,.06-.05.1-.07l0-.06v0h0v0h0a1.28,1.28,0,0,0,0-.28A10.36,10.36,0,0,0,21.78,13c-.43-.93-.91-1.85-1.25-2.55L20,9.25A.11.11,0,0,1,20,9.11.09.09,0,0,1,20.13,9.15Z"/><path class="cls-19" d="M18.8,18s2-1.47,3.67-.22l0,.06a3.22,3.22,0,0,1-1.68.61,4.1,4.1,0,0,1-2.08-.34Z"/><path class="cls-18" d="M22.47,17.79c-1.63-1.25-3.67.22-3.67.22l-.05.11c-.87-.4-1.32-1.07-1-1.6.46-.89,1.82-.11,3-.17,1.41-.08,2-.77,2.32-.45s.31,1.35-.48,2Z"/><path class="cls-14" d="M17.68,10.43c-.38-.44-1.81.79-1.47,1.47S18.11,10.93,17.68,10.43Z"/><path class="cls-14" d="M20.93,9c-.06-.58,1.82-.77,2.08,0S21,9.69,20.93,9Z"/><path class="cls-20" d="M22.45,33a2.89,2.89,0,1,0-2.89,2.88A2.89,2.89,0,0,0,22.45,33Z"/><path class="cls-21" d="M19.3,29.53a1.51,1.51,0,0,1-.06-.18,2.55,2.55,0,0,1,0-.42v-.22a1.23,1.23,0,0,1,0-.2c0-.11,0-.19,0-.19a.12.12,0,0,1,.14-.07.12.12,0,0,1,.07.07,1.51,1.51,0,0,1,.06.18,1.08,1.08,0,0,1,0,.19l0,.23a2.46,2.46,0,0,1,0,.41.67.67,0,0,1,0,.19.11.11,0,0,1-.14.07A.13.13,0,0,1,19.3,29.53Z"/><path class="cls-21" d="M17.71,30.15,17.55,30a2.38,2.38,0,0,1-.31-.32l-.14-.19a1.42,1.42,0,0,0-.11-.18l-.08-.19A.11.11,0,0,1,17,29a.1.1,0,0,1,.09,0l.17.12c0,.05.1.09.15.15l.15.18a1.85,1.85,0,0,1,.25.37,1.07,1.07,0,0,1,.09.19.13.13,0,0,1-.08.14A.14.14,0,0,1,17.71,30.15Z"/><path class="cls-21" d="M16.38,31.48l-.2-.07a3.78,3.78,0,0,1-.38-.21l-.19-.14-.15-.14a1,1,0,0,1-.14-.15.12.12,0,0,1,0-.15.12.12,0,0,1,.1,0l.19.07a1,1,0,0,1,.18.09,1.13,1.13,0,0,1,.21.12,2.52,2.52,0,0,1,.34.27,1.34,1.34,0,0,1,.13.15.11.11,0,0,1,0,.16A.15.15,0,0,1,16.38,31.48Z"/><path class="cls-21" d="M16.23,33,16,33l-.57,0-.3,0a2,2,0,0,1-.27,0l-.26,0a.1.1,0,0,1-.07-.13.1.1,0,0,1,.07-.07l.26,0a2,2,0,0,1,.27,0h.3a4.67,4.67,0,0,1,.57,0l.26.06a.11.11,0,0,1,.08.13A.1.1,0,0,1,16.23,33Z"/><path class="cls-21" d="M16.75,34.59a.88.88,0,0,1-.12.17c-.08.09-.2.2-.32.31l-.2.13a.87.87,0,0,1-.18.11,1.07,1.07,0,0,1-.19.09.1.1,0,0,1-.13-.07.07.07,0,0,1,0-.09.88.88,0,0,1,.12-.17l.14-.15.18-.16a2.08,2.08,0,0,1,.37-.24l.19-.09a.11.11,0,0,1,.14.07A.09.09,0,0,1,16.75,34.59Z"/><path class="cls-21" d="M18,36a1.68,1.68,0,0,1,0,.23,2.59,2.59,0,0,1-.12.48l-.09.25c0,.08-.07.14-.1.21a1,1,0,0,1-.12.19.11.11,0,0,1-.15,0,.14.14,0,0,1-.05-.09s0-.1,0-.23a2.23,2.23,0,0,1,0-.23,2.33,2.33,0,0,0,.07-.25,2.88,2.88,0,0,1,.2-.46,1,1,0,0,1,.12-.19.1.1,0,0,1,.15,0A.09.09,0,0,1,18,36Z"/><path class="cls-21" d="M19.86,36.42a1.45,1.45,0,0,1,.05.23,2.53,2.53,0,0,1,0,.5v.27a1.57,1.57,0,0,1,0,.24,1.48,1.48,0,0,1-.05.22.1.1,0,0,1-.13.07.08.08,0,0,1-.07-.07s0-.09-.06-.22,0-.15,0-.24,0-.17,0-.27,0-.36,0-.5a1,1,0,0,1,.06-.23.1.1,0,0,1,.13-.06A.09.09,0,0,1,19.86,36.42Z"/><path class="cls-21" d="M21.3,36a2,2,0,0,1,.19.17,4.1,4.1,0,0,1,.34.41l.16.23c.05.08.08.16.12.22l.1.23a.11.11,0,0,1-.07.14.12.12,0,0,1-.1,0,1.45,1.45,0,0,1-.18-.17L21.69,37l-.18-.23a5.15,5.15,0,0,1-.28-.45l-.1-.23a.13.13,0,0,1,.07-.14A.12.12,0,0,1,21.3,36Z"/><path class="cls-21" d="M22.58,34.57a1,1,0,0,1,.19,0,3,3,0,0,1,.38.17l.19.13.16.12.14.14a.11.11,0,0,1,0,.15.14.14,0,0,1-.09,0l-.19,0-.18-.08-.2-.1a2,2,0,0,1-.34-.24.76.76,0,0,1-.14-.14.11.11,0,0,1,0-.15A.16.16,0,0,1,22.58,34.57Z"/><path class="cls-21" d="M22.93,32.39a.92.92,0,0,1,.18,0l.4,0h.21l.19,0,.18,0a.13.13,0,0,1,.06.15.09.09,0,0,1-.06.06.92.92,0,0,1-.18,0,1.08,1.08,0,0,1-.19,0h-.21a1.59,1.59,0,0,1-.4,0,.92.92,0,0,1-.18,0,.11.11,0,0,1-.06-.15A.17.17,0,0,1,22.93,32.39Z"/><path class="cls-21" d="M22.24,30.87s0-.08.08-.18a2.6,2.6,0,0,1,.23-.35l.15-.17.14-.14.16-.11a.1.1,0,0,1,.15,0,.1.1,0,0,1,0,.09.9.9,0,0,1-.08.19,1.81,1.81,0,0,1-.1.17l-.12.18a2.1,2.1,0,0,1-.29.3,1.07,1.07,0,0,1-.16.12.13.13,0,0,1-.16,0A.28.28,0,0,1,22.24,30.87Z"/><path class="cls-21" d="M20.82,29.79a1.18,1.18,0,0,1,0-.19,2.53,2.53,0,0,1,.12-.4c0-.07.07-.13.1-.2s.07-.11.1-.16a1.39,1.39,0,0,1,.11-.16.12.12,0,0,1,.16,0,.11.11,0,0,1,0,.08,1.18,1.18,0,0,1,0,.19.67.67,0,0,1-.05.19,1.72,1.72,0,0,1-.07.21,2.12,2.12,0,0,1-.19.37,1.08,1.08,0,0,1-.12.15.12.12,0,0,1-.16,0A.11.11,0,0,1,20.82,29.79Z"/><path class="cls-22" d="M34.25,19.44l-.33-.06H33.6a.84.84,0,0,0-.32.08.47.47,0,0,0-.14.08s-.07.08-.11.12a1.91,1.91,0,0,0-.16.27,2.16,2.16,0,0,0-.08.23l0,.08h0a.09.09,0,0,1-.13.06.1.1,0,0,1-.07-.09v-.1a1,1,0,0,1,0-.28,1.2,1.2,0,0,1,.15-.39,1,1,0,0,1,.16-.19,1.07,1.07,0,0,1,.22-.15.73.73,0,0,1,.25-.08l.24,0a1.57,1.57,0,0,1,.4.08,1.26,1.26,0,0,1,.34.17.1.1,0,0,1,0,.15A.14.14,0,0,1,34.25,19.44Z"/><path class="cls-22" d="M43.26,14.9a1.86,1.86,0,0,1,.22-.32,1.54,1.54,0,0,1,.32-.29,1.17,1.17,0,0,1,.25-.11.58.58,0,0,1,.34,0,.66.66,0,0,1,.16.12l.07.08a1.57,1.57,0,0,1,.13.23.75.75,0,0,1,.07.23,1.55,1.55,0,0,1,0,.21,1.85,1.85,0,0,1,0,.29.7.7,0,0,1,0,.11.1.1,0,0,1-.13.06.11.11,0,0,1-.07-.09h0v-.09c0-.06,0-.15,0-.25a.83.83,0,0,1,0-.15.69.69,0,0,0-.07-.15.29.29,0,0,0-.09-.14l-.07-.08s0,0,0,0a.15.15,0,0,0-.1,0l-.15.06a2,2,0,0,0-.28.19l-.28.23a.1.1,0,0,1-.14,0,.09.09,0,0,1,0-.11Z"/><path class="cls-18" d="M39,11.53c-.24-.16-1,.1-1.44.59s-.52,1-.36,1.11S39.58,11.91,39,11.53Z"/><path class="cls-18" d="M42.94,9.4c.07-.27.83-.61,1.46-.52s1,.36,1,.59S42.78,10.06,42.94,9.4Z"/><path class="cls-19" d="M46,17.65a2,2,0,0,1-1.16.74,3,3,0,0,1-1.56-.1l0-.07s1.3-1.4,2.65-.61Z"/><path class="cls-18" d="M44.24,16.4c1.07,0,1.41-.81,1.88-.47S46.47,17,46,17.65l0,0c-1.35-.79-2.65.61-2.65.61l0,.07c-.62-.21-1.07-.61-1-1.11C42.44,16.28,43.4,16.43,44.24,16.4Z"/><path class="cls-23" d="M40,14.55l0-.05h0a.1.1,0,0,0-.07,0,.1.1,0,0,0-.11.08,1,1,0,0,1,0,.17.54.54,0,0,1-.09.25.52.52,0,0,1-.1.11l-.06,0h0a.2.2,0,0,0-.11,0c-.23.11-.26.51-.07.91s.49.54.71.43.3-.43.11-.83a1.16,1.16,0,0,0-.29-.38l.11-.11a.54.54,0,0,0,.07-.13.31.31,0,0,0,0-.13.53.53,0,0,0,0-.22A.38.38,0,0,0,40,14.55Z"/><path class="cls-23" d="M46,11.64l0,0h0l-.07,0a.1.1,0,0,0-.11.09.91.91,0,0,1,0,.16.58.58,0,0,1-.09.26l-.1.1-.06,0,0,0a.2.2,0,0,0-.11,0c-.23.11-.26.52-.07.91s.49.54.71.44.3-.44.11-.83a1.32,1.32,0,0,0-.29-.39.57.57,0,0,0,.11-.11.75.75,0,0,0,.07-.12.35.35,0,0,0,0-.14.53.53,0,0,0,0-.22A.38.38,0,0,0,46,11.64Z"/><path class="cls-24" d="M34.18,43.33c-.18.18-.62,1.71-.26,2s1.11.31,1.2.09.47-1.7.21-1.92S34.44,43.07,34.18,43.33Z"/><path class="cls-25" d="M53.28,2.31,53.16,2A5.47,5.47,0,0,1,53,1.4c0-.11,0-.23-.07-.34s0-.21,0-.3,0-.3,0-.3A.11.11,0,0,1,53,.35.09.09,0,0,1,53,.41a2.11,2.11,0,0,1,.12.28c0,.08.07.18.1.29s.06.22.09.33.1.47.12.65a1.71,1.71,0,0,1,0,.3.09.09,0,0,1-.1.1A.12.12,0,0,1,53.28,2.31Z"/><path class="cls-25" d="M51.55,3a2.5,2.5,0,0,1-.27-.19c-.16-.13-.35-.31-.54-.49L50.47,2l-.22-.26-.2-.27a.11.11,0,0,1,0-.15.13.13,0,0,1,.12,0,3.22,3.22,0,0,1,.27.2c.07.06.17.13.26.22L51,2a5.58,5.58,0,0,1,.49.55c.12.15.2.27.2.27a.1.1,0,0,1,0,.14A.11.11,0,0,1,51.55,3Z"/><path class="cls-25" d="M51.56,4.67a1.57,1.57,0,0,1-.23.12,3.71,3.71,0,0,1-.54.19l-.29.07-.26,0-.26,0a.11.11,0,0,1-.11-.1.12.12,0,0,1,.05-.1l.24-.11.24-.1.29-.09a3.7,3.7,0,0,1,.55-.12l.27,0a.1.1,0,0,1,.1.11A.11.11,0,0,1,51.56,4.67Z"/><path class="cls-26" d="M35.18,6.72l-.11.06-.22.16a.74.74,0,0,0-.21.28s0,0,0,.08,0,0,0,0v.06a.53.53,0,0,0,0,.22s0,.06,0,.09l0,.09a.86.86,0,0,0,.1.16.93.93,0,0,0,.14.14L35,8.2l.14.08.11.05.11.05h0a.1.1,0,0,1,.06.13.12.12,0,0,1-.11.07l-.12,0-.15,0-.18-.06a1.36,1.36,0,0,1-.2-.11,1.46,1.46,0,0,1-.21-.16A1.1,1.1,0,0,1,34.3,8l-.06-.15,0-.16a.82.82,0,0,1,0-.28V7.29a.41.41,0,0,1,0-.09.35.35,0,0,1,.06-.14,1,1,0,0,1,.36-.38A1.79,1.79,0,0,1,35,6.55l.11,0a.11.11,0,0,1,.13.08A.14.14,0,0,1,35.18,6.72Z"/><path class="cls-26" d="M35.34,6.69l.07.06a1.24,1.24,0,0,0,.24.16,2.29,2.29,0,0,0,.35.16,2.86,2.86,0,0,0,1,.16,2,2,0,0,0,.54-.05.65.65,0,0,0,.4-.19s0,0,0,0V7s0,0,0,0a1.3,1.3,0,0,0-.21-.12,3.18,3.18,0,0,0-.53-.14,5.29,5.29,0,0,0-1-.1,4.34,4.34,0,0,0-.71,0Zm-.24-.16a3.23,3.23,0,0,1,1-.22,4.52,4.52,0,0,1,1.08.05,3.76,3.76,0,0,1,.6.15,1.5,1.5,0,0,1,.32.18.47.47,0,0,1,.15.2.32.32,0,0,1,0,.17.42.42,0,0,1,0,.14.61.61,0,0,1-.16.16l-.16.1a3,3,0,0,1-.33.1,2.74,2.74,0,0,1-.63,0,3.07,3.07,0,0,1-1.07-.24,2.35,2.35,0,0,1-.39-.21,2.28,2.28,0,0,1-.27-.23,1.1,1.1,0,0,1-.13-.17l0-.06a.11.11,0,0,1,0-.15Z"/><path class="cls-26" d="M36.08,4.69l-.1,0-.25.13a1.49,1.49,0,0,0-.28.23,1.58,1.58,0,0,0-.12.15l0,.09s0,.07,0,.1a1.87,1.87,0,0,0-.07.22l0,.1s0,0,0,0v.06s0,.08,0,.11V6h0c0-.06,0,0,0,0h0a1,1,0,0,0,0,.18.76.76,0,0,0,.06.25l0,.1h0a.11.11,0,0,1-.18.1L35,6.59a.89.89,0,0,1-.15-.31,1.94,1.94,0,0,1,0-.2.66.66,0,0,0,0-.14V5.77a.64.64,0,0,1,0-.09l0-.13a1.35,1.35,0,0,1,.08-.24.43.43,0,0,1,0-.13L35,5.05l.18-.21a1.22,1.22,0,0,1,.41-.25,1.28,1.28,0,0,1,.31-.08l.11,0a.12.12,0,0,1,.12.09A.11.11,0,0,1,36.08,4.69Z"/><path class="cls-26" d="M36.23,4.67l.12.16a2.69,2.69,0,0,0,.79.52,5,5,0,0,0,1.32.38,3.78,3.78,0,0,0,.76,0,1.36,1.36,0,0,0,.36,0,.42.42,0,0,0,.22-.12s0,0,0,0V5.56s0,0,0,0a.28.28,0,0,0-.06-.1,1,1,0,0,0-.28-.21,3.6,3.6,0,0,0-.7-.3,6.92,6.92,0,0,0-1.35-.28,5.59,5.59,0,0,0-1,0ZM36,4.49l.39-.09a5.09,5.09,0,0,1,1-.05,6.86,6.86,0,0,1,1.44.24,4.28,4.28,0,0,1,.78.32,1.39,1.39,0,0,1,.37.28.66.66,0,0,1,.15.26.55.55,0,0,1,0,.19v.05a.64.64,0,0,1,0,.1.68.68,0,0,1-.47.31,1.74,1.74,0,0,1-.45.06,4.44,4.44,0,0,1-.83-.06A4.9,4.9,0,0,1,37,5.63,2.68,2.68,0,0,1,36.17,5,1.58,1.58,0,0,1,36,4.73l0-.09a.11.11,0,0,1,0-.14Z"/><path class="cls-26" d="M36,4.61a1.26,1.26,0,0,1-.07-.44,1.53,1.53,0,0,1,.06-.46,1.67,1.67,0,0,1,.21-.5,1.74,1.74,0,0,1,.36-.4,2,2,0,0,1,.39-.25,1.64,1.64,0,0,1,.3-.11l.12,0a.09.09,0,0,1,.12.07.08.08,0,0,1,0,.11h0l-.09.06a1.64,1.64,0,0,0-.24.16,2.12,2.12,0,0,0-.31.25,1.5,1.5,0,0,0-.27.34,1.56,1.56,0,0,0-.19.39,2.15,2.15,0,0,0-.1.38,2.46,2.46,0,0,0,0,.38.11.11,0,0,1-.1.11A.1.1,0,0,1,36,4.61Z"/><path class="cls-27" d="M41.69,19.33a1.76,1.76,0,1,0-1.76,1.76A1.76,1.76,0,0,0,41.69,19.33Z"/><path class="cls-27" d="M49.05,15.66a5.5,5.5,0,0,0-1-1.53c-1,0-1.48.77-1.48,1.74a1.76,1.76,0,0,0,1.76,1.76,1.8,1.8,0,0,0,1.11-.39A4.57,4.57,0,0,0,49.05,15.66Z"/><path class="cls-28" d="M32.14,18.34s0-.09,0-.24a2.22,2.22,0,0,1,.19-.63,1,1,0,0,1,.13-.2l.09-.1h0l0,0h0l.05,0a2.46,2.46,0,0,1,.46-.17l.49-.14.5-.13c.67-.16,1.34-.3,1.85-.39l.85-.14a.12.12,0,0,1,.11.09.11.11,0,0,1-.07.12l-.83.23c-.24.06-.53.15-.85.22l-1,.25c-.32.08-.68.16-1,.24s-.29.07-.43.12l0,0h-.05s0,0,0,0h0l-.05,0s-.07.09-.1.13a2.66,2.66,0,0,0-.22.54c0,.14-.07.22-.07.22a.1.1,0,0,1-.12.07A.12.12,0,0,1,32.14,18.34Z"/><path class="cls-28" d="M41.88,14.45A1.28,1.28,0,0,1,42,14a1.76,1.76,0,0,1,.69-.73c.08,0,.18-.08.26-.12l.26-.07a2.46,2.46,0,0,1,.26,0,1.61,1.61,0,0,1,.54.08l.12,0a.1.1,0,0,1,.06.13.1.1,0,0,1-.09.07h-.42a1.37,1.37,0,0,0-.19,0l-.2,0a.86.86,0,0,0-.21.07,1.24,1.24,0,0,0-.2.1l-.18.11a.83.83,0,0,0-.17.15,3.45,3.45,0,0,0-.27.29,3.79,3.79,0,0,0-.22.33.1.1,0,0,1-.14.05.1.1,0,0,1,0-.11Z"/><path class="cls-29" d="M42.28,15.8a2.64,2.64,0,1,0-2.64,2.65A2.64,2.64,0,0,0,42.28,15.8Z"/><path class="cls-29" d="M49,12.37a2.48,2.48,0,1,0-2.48,2.48A2.48,2.48,0,0,0,49,12.37Z"/><path class="cls-28" d="M39.64,18.59a2.79,2.79,0,1,1,2.79-2.79A2.79,2.79,0,0,1,39.64,18.59Zm0-5.28a2.5,2.5,0,1,0,2.5,2.49A2.5,2.5,0,0,0,39.64,13.31Z"/><path class="cls-28" d="M46.48,15a2.63,2.63,0,1,1,2.63-2.62A2.62,2.62,0,0,1,46.48,15Zm0-5a2.33,2.33,0,1,0,2.33,2.33A2.33,2.33,0,0,0,46.48,10Z"/><path class="cls-30" d="M52.71,4.27c-.15.69,1.37,5.92,1.95,6,0,0-.6.28-.7.15A13.16,13.16,0,0,1,52.2,5.24,4.93,4.93,0,0,1,52.71,4.27Z"/><path class="cls-23" d="M61.66,1.45c.64.09,2.09,4.89,1.91,5.4s-8.33,3.49-8.91,3.41-2.1-5.3-1.95-6S61.24,1.4,61.66,1.45Z"/><path class="cls-31" d="M60.24,3.73c-.36,0-3.26.82-3.47,1.42-.29.83,1,3.18,1.19,3.21s3.57-1,3.79-1.55C61.88,6.51,60.82,3.71,60.24,3.73Z"/><path class="cls-32" d="M59.51,35.93h0a.38.38,0,0,1-.36-.42l1-12.53a.39.39,0,0,1,.42-.36.39.39,0,0,1,.36.42l-1,12.53A.39.39,0,0,1,59.51,35.93Z"/><path class="cls-32" d="M60.52,21.71h0a.39.39,0,0,1-.37-.41c.48-6.57.94-12.79,1-13.22s-1-1.51-2.06-2.28A.39.39,0,0,1,59,5.24a.4.4,0,0,1,.55-.08c.57.44,2.45,1.94,2.37,3,0,.44-.49,6.65-1,13.22A.39.39,0,0,1,60.52,21.71Z"/><path class="cls-22" d="M59.16,23.62a3,3,0,0,1-.23-.79,1.73,1.73,0,0,1,0-.41,1.4,1.4,0,0,1,.07-.48.9.9,0,0,1,.12-.24.5.5,0,0,1,.1-.13l.09-.08a.93.93,0,0,1,.58-.16,1.52,1.52,0,0,1,.53.12l.24.13.09.07.11.09a.71.71,0,0,1,.23.5.54.54,0,0,1-.08.28.81.81,0,0,1-.16.17.5.5,0,0,1-.4.12.85.85,0,0,1-.29-.08l-.15-.1,0,0a.11.11,0,0,1,0-.15.11.11,0,0,1,.15,0l.17.07a.35.35,0,0,0,.39,0,.21.21,0,0,0,.08-.11.18.18,0,0,0,0-.1.43.43,0,0,0-.15-.25L60.5,22l-.1-.07-.17-.08a1.06,1.06,0,0,0-.39-.09.69.69,0,0,0-.32.07l-.09.08s0,0,0,.05a.4.4,0,0,0-.08.16,1.45,1.45,0,0,0-.08.36,2.16,2.16,0,0,0,0,.36,4.17,4.17,0,0,0,.08.55l0,.21a.11.11,0,0,1-.08.12A.11.11,0,0,1,59.16,23.62Z"/><path class="cls-22" d="M63.34,23.64v-.05s0-.1,0-.14a.37.37,0,0,0-.07-.16s0-.06-.07-.09,0,0,0,0h0l0,0-.07-.05-.08,0-.07,0-.13,0c-.12,0-.24,0-.37,0a2.85,2.85,0,0,0-.4,0,2.52,2.52,0,0,0-.39.12,1.63,1.63,0,0,0-.35.17.52.52,0,0,0-.13.11.3.3,0,0,0-.06.11s0,.09,0,.08h0s0,0,0,0a1,1,0,0,0,.3,0,2.72,2.72,0,0,0,.51-.07l.2,0h0a.1.1,0,0,1,.12.09.1.1,0,0,1-.06.11l-.19.08a3.88,3.88,0,0,1-.55.14A1.26,1.26,0,0,1,61,24a.42.42,0,0,1-.26-.19.46.46,0,0,1,0-.2.39.39,0,0,1,0-.13.53.53,0,0,1,.13-.26.77.77,0,0,1,.19-.18,2.11,2.11,0,0,1,.44-.24,2.49,2.49,0,0,1,.47-.12,2.42,2.42,0,0,1,.46,0,1.61,1.61,0,0,1,.44.05,1.29,1.29,0,0,1,.39.18l.06.05,0,0h0s0,0,0,0a.49.49,0,0,1,.1.15.64.64,0,0,1,.07.28.34.34,0,0,1,0,.16v.06a.12.12,0,0,1-.12.09A.12.12,0,0,1,63.34,23.64Z"/><path class="cls-22" d="M63.21,23a.81.81,0,0,0,0-.17,1.68,1.68,0,0,0,0-.2,1,1,0,0,0-.06-.22.44.44,0,0,0-.15-.18l0,0h0s0,0,0,0h0l-.09,0c-.06,0-.09,0-.13,0h0s0,0,0,0h-.1a1,1,0,0,0-.17,0l-.36.07a3.25,3.25,0,0,0-.7.26,2,2,0,0,0-.29.16l-.12.08,0,0s0,0,0,0,0,0,0,0,0,.1,0,.13a.64.64,0,0,0,0,.07.24.24,0,0,0,.1.1.39.39,0,0,0,.12,0,.1.1,0,1,1,0,.2.45.45,0,0,1-.24,0,.46.46,0,0,1-.23-.16.54.54,0,0,1-.09-.17s0-.09,0-.14V22.7a.21.21,0,0,1,0-.12l.07-.1.15-.13a3.53,3.53,0,0,1,.32-.21,4.76,4.76,0,0,1,.77-.31l.43-.07h.39l.06,0a.86.86,0,0,1,.21.07l.08.05h.06l0,0a.86.86,0,0,1,.22.34.91.91,0,0,1,0,.31.79.79,0,0,1,0,.23.69.69,0,0,1,0,.2.11.11,0,0,1-.12.08A.1.1,0,0,1,63.21,23Z"/><path class="cls-22" d="M63,22.08a.67.67,0,0,0,0-.12,1.58,1.58,0,0,0-.15-.28.47.47,0,0,0-.13-.15.24.24,0,0,0-.08-.06l-.08,0-.1,0h-.25l-.12,0-.26,0-.26.07-.48.14-.46.14a.1.1,0,0,1-.13-.07.11.11,0,0,1,0-.11s.17-.11.44-.25l.47-.2.28-.08L62,21l.17,0h.32l.17.06a.9.9,0,0,1,.26.2.79.79,0,0,1,.15.24.93.93,0,0,1,.11.37.84.84,0,0,1,0,.14h0a.11.11,0,0,1-.11.1A.12.12,0,0,1,63,22.08Z"/></g></g></svg>