<svg id="分離模式" xmlns="http://www.w3.org/2000/svg" viewBox="0 0 53.45 45.37"><defs><style>.cls-1{fill:#005743;}.cls-2{fill:#006f41;}.cls-3{fill:#f8b85f;}.cls-4{fill:#f5a230;}.cls-5{fill:#0b3560;}.cls-6{fill:#f7bb98;}.cls-7{fill:#f3a270;}.cls-8{fill:#30254a;}.cls-9{fill:#200c26;}.cls-10{fill:#ed6c41;}.cls-11{fill:#f18e4f;}.cls-12{fill:#56246d;}.cls-13{fill:#f08829;}.cls-14{fill:#ed701c;}.cls-15{fill:none;stroke:#040000;stroke-miterlimit:10;stroke-width:0.08px;}.cls-16{fill:#003722;}.cls-17{fill:#ef8661;}.cls-18{fill:#ed7248;}.cls-19{fill:#eb5d32;}.cls-20{fill:#db3115;}.cls-21{fill:#772057;}.cls-22{fill:#d88e76;}.cls-23{fill:#d1785a;}.cls-24{fill:#591335;}.cls-25{fill:#ce4e51;}.cls-26{fill:#51090d;}.cls-27{fill:#c6613d;}.cls-28{fill:#6c221e;}.cls-29{fill:#fff;}.cls-30{fill:#746d67;}.cls-31{fill:#473e35;}.cls-32{fill:#3d254c;}.cls-33{fill:#deddd7;}.cls-34{fill:#b9b6a9;}.cls-35{fill:#ab1f24;}.cls-36{fill:#8bbfc2;}.cls-37{fill:#00a053;}.cls-38{fill:#908b76;}.cls-39{fill:#040000;}</style></defs><path class="cls-1" d="M273.62,406.33,270.9,403l-1.78,2.51-.11,1.18,4.6,0C273.62,406.58,273.61,406.45,273.62,406.33Z" transform="translate(-253.77 -368.94)"/><path class="cls-1" d="M269.48,410.78s-.05,1.4-.14,2.78c1.37-.1,2.79-.18,4.24-.25-.06-2.15-.06-4.3,0-6.45C273,409.46,271.57,410.67,269.48,410.78Z" transform="translate(-253.77 -368.94)"/><path class="cls-2" d="M273.65,406.71h0v.15C273.62,406.81,273.64,406.76,273.65,406.71Z" transform="translate(-253.77 -368.94)"/><path class="cls-2" d="M269,406.69l-6.46,0s-.33,4.84-.44,7.63c1.93-.26,4-.48,6.23-.66Z" transform="translate(-253.77 -368.94)"/><path class="cls-2" d="M269.34,413.56c.09-1.38.14-2.78.14-2.78,2.09-.11,3.52-1.32,4.13-3.92v-.15l-4.6,0-.67,6.95Z" transform="translate(-253.77 -368.94)"/><path class="cls-3" d="M293.48,394c1.42.23,2.88.17,4.3.35l0-4.88-1-.55a3.38,3.38,0,0,1-3.44,1.85c-2.6-.18-2.72-2.16-2.72-2.16s-.72.81-1.48,1.81a3.59,3.59,0,0,0,.26.92C290,393,291.79,393.78,293.48,394Z" transform="translate(-253.77 -368.94)"/><path class="cls-3" d="M294,397.09a3.44,3.44,0,0,0-1.69,1,2.3,2.3,0,0,0,.1,2.87c.65.71,1.67.93,2.44,1.5a3,3,0,0,1,1.21,2.35,2.82,2.82,0,0,1-1.2,2.32c-.95.65-2.19.6-3.33.8a7.34,7.34,0,0,0-2.38.87,3.81,3.81,0,0,0-1.42,1.28,12.44,12.44,0,0,0-.38,3.13c4.65.17,9,.52,12.71,1-2.48-4.5-3.94-15.54-3.94-15.54l.84-1.81A6.72,6.72,0,0,0,294,397.09Z" transform="translate(-253.77 -368.94)"/><path class="cls-4" d="M288.15,398.09c-2.06,3.91-3.39,12-3.85,15.07l1.31,0C285.69,410.11,286.08,402,288.15,398.09Z" transform="translate(-253.77 -368.94)"/><path class="cls-4" d="M289.08,390.46l-.06.08.06-.08Z" transform="translate(-253.77 -368.94)"/><path class="cls-4" d="M287.31,413.24a12.44,12.44,0,0,1,.38-3.13,3.81,3.81,0,0,1,1.42-1.28,7.34,7.34,0,0,1,2.38-.87c1.14-.2,2.38-.15,3.33-.8a2.82,2.82,0,0,0,1.2-2.32,3,3,0,0,0-1.21-2.35c-.77-.57-1.79-.79-2.44-1.5a2.3,2.3,0,0,1-.1-2.87,3.44,3.44,0,0,1,1.69-1,6.72,6.72,0,0,1,3-.19l.87-1.89v-.62c-1.42-.18-2.88-.12-4.3-.35-1.69-.26-3.47-1.08-4.14-2.66a3.59,3.59,0,0,1-.26-.92l-.06.08-.25.35a1.71,1.71,0,0,1-.11.14l-.22.32a1,1,0,0,0-.11.17l-.19.29L288,392l-.15.27-.11.18-.12.25-.08.17-.09.23a.66.66,0,0,1-.05.15,2.07,2.07,0,0,0,0,.22.43.43,0,0,1,0,.11.71.71,0,0,0,0,.26,3.55,3.55,0,0,0,1.33,1.67l-.58,2.59c-2.07,3.92-2.46,12-2.54,15.1Z" transform="translate(-253.77 -368.94)"/><polygon class="cls-4" points="44.01 25.45 44.01 25.45 44.01 26.08 44.01 25.45"/><path class="cls-3" d="M256.85,373.54a2.11,2.11,0,0,0-1.15.7,2,2,0,0,0,0,1.79,4,4,0,0,1,.38,1.8,3.68,3.68,0,0,1-1.34,1.87,2.25,2.25,0,0,0-.88,2.05,1.89,1.89,0,0,0,.42.69,4.7,4.7,0,0,0,2.74,1.37,14,14,0,0,0,3.1.07l1-11.23A19.46,19.46,0,0,0,256.85,373.54Z" transform="translate(-253.77 -368.94)"/><path class="cls-5" d="M260.08,383.88l1-11.23c-.54.05-1.08.13-1.62.23a12.89,12.89,0,0,0-2.11,5.54,18.2,18.2,0,0,0-.13,2.45,17,17,0,0,0,.23,3A16.12,16.12,0,0,0,260.08,383.88Z" transform="translate(-253.77 -368.94)"/><path class="cls-3" d="M262.1,387.17a3.44,3.44,0,0,1-2-.74,5.89,5.89,0,0,1-1.91-3.13c-.34-3.72.63-8.27,2.56-10.74s3.24-3,4.36-3.29a7.61,7.61,0,0,1,3-.29,4,4,0,0,1,2.59,1.35,4.15,4.15,0,0,1,.79,1.81,4.84,4.84,0,0,1,.09,1.47,7.71,7.71,0,0,1-.49,1.93A30,30,0,0,1,265.3,385c-.8.91-1.77,2.2-3.2,2.2" transform="translate(-253.77 -368.94)"/><polygon class="cls-6" points="11.43 18.69 11.77 22.16 14.73 26.54 15.95 23.76 15.13 17.62 11.43 18.69"/><path class="cls-7" d="M268.22,391.06a3.74,3.74,0,0,1-.61-3.2.85.85,0,0,1,.09-.22,1,1,0,0,1,.31-.25l.93-.54,0-.29-3.7,1.06.35,3.48,2.95,4.37,1.23-2.78-.06-.43A4.44,4.44,0,0,1,268.22,391.06Z" transform="translate(-253.77 -368.94)"/><path class="cls-8" d="M271.68,375a4.4,4.4,0,0,0,.43-1.32,2.21,2.21,0,0,0,0-1,.88.88,0,0,0-.68-.66,1.3,1.3,0,0,0-.87.3c.05-.58.06-1.26-.4-1.6a1.34,1.34,0,0,0-1.06-.16,3.33,3.33,0,0,0-1.74.88.77.77,0,0,0-.48-1.05,1.82,1.82,0,0,0-1.29.15,8.75,8.75,0,0,0-4.11,3.73,14.19,14.19,0,0,0-1.72,5.35,14.81,14.81,0,0,0-.06,4,7.33,7.33,0,0,0,2.47,3.58c1.33,1.09,3.23,1.17,4.94,1.05a9.83,9.83,0,0,0,2.69-.44,5.13,5.13,0,0,0,3.31-4.7C273.13,381.07,271.69,375.16,271.68,375Z" transform="translate(-253.77 -368.94)"/><path class="cls-6" d="M270,373.65c-.42.05-1.64.54-2.49.67s-1.83-1-3.05,0a9.39,9.39,0,0,0-3.38,7c-.1,3.66,3.82,3.7,5.29,2s3.87-2.3,5.56-1a10.62,10.62,0,0,1,1.15,1c0-.09,0-.19,0-.28,0-2-1.43-7.94-1.44-8.11C271.68,375,270.45,373.61,270,373.65Z" transform="translate(-253.77 -368.94)"/><path class="cls-5" d="M267.09,380.56a.51.51,0,0,1-.46.54c-.23,0-.41-.27-.4-.58a.45.45,0,1,1,.86,0Z" transform="translate(-253.77 -368.94)"/><path class="cls-9" d="M267.25,378.08c0,.1-.26.1-.57.14a3,3,0,0,0-1.11.36,3,3,0,0,0-.85.8c-.19.25-.3.44-.4.43s-.16-.26-.05-.65a2.11,2.11,0,0,1,2.44-1.44C267.1,377.82,267.28,378,267.25,378.08Z" transform="translate(-253.77 -368.94)"/><path class="cls-5" d="M271.87,379.91a.51.51,0,0,1-.45.54.51.51,0,0,1-.41-.58c0-.31.22-.55.46-.54A.51.51,0,0,1,271.87,379.91Z" transform="translate(-253.77 -368.94)"/><path class="cls-9" d="M270.11,378c.06.07.22,0,.46-.12a2,2,0,0,1,.92-.16,2.19,2.19,0,0,1,.91.35c.23.14.38.27.45.21s0-.3-.22-.6a1.7,1.7,0,0,0-1.13-.66,1.37,1.37,0,0,0-1.15.43C270.11,377.73,270.06,378,270.11,378Z" transform="translate(-253.77 -368.94)"/><path class="cls-10" d="M270.55,383.17s.05.16,0,.41a1.14,1.14,0,0,1-.22.4.66.66,0,0,1-.55.26.92.92,0,0,1-.77-.67c-.08-.24-.09-.39-.07-.4s.1.13.22.34a.86.86,0,0,0,.63.51c.3,0,.51-.31.62-.5S270.51,383.16,270.55,383.17Z" transform="translate(-253.77 -368.94)"/><path class="cls-11" d="M270.6,380.05c-.4-.76-1-1.49-1.38-2.25a11.47,11.47,0,0,0,.46,3.29,3.08,3.08,0,0,0,.41,1c.19.29.57.54.87.35a.7.7,0,0,0,.23-.63A4.24,4.24,0,0,0,270.6,380.05Z" transform="translate(-253.77 -368.94)"/><path class="cls-7" d="M267.79,381.72c-.48,0-1,.16-1.43.19a4.77,4.77,0,0,1-1.88-.22,2.38,2.38,0,0,1-1.89-2.06,5,5,0,0,1,.51-3,7.6,7.6,0,0,1,2.62-2.72,1.68,1.68,0,0,0-1.23.4,9.39,9.39,0,0,0-3.38,7c-.1,3.66,3.82,3.7,5.29,2a4.93,4.93,0,0,1,2.61-1.59A4.53,4.53,0,0,0,267.79,381.72Z" transform="translate(-253.77 -368.94)"/><path class="cls-12" d="M259.71,380.36a9.05,9.05,0,0,1,1.15-5.21,9.2,9.2,0,0,1,3.55-4,20.88,20.88,0,0,0-3.15,4.19A20,20,0,0,0,259.71,380.36Z" transform="translate(-253.77 -368.94)"/><path class="cls-12" d="M269.8,387.8a3.61,3.61,0,0,1-1.74.52,10.93,10.93,0,0,1-4.41-.12,4.76,4.76,0,0,1-2.1-1.3,8.38,8.38,0,0,1-1.23-1.57,2.83,2.83,0,0,1-.61-1.72,11.33,11.33,0,0,0,.87,1.55,10.35,10.35,0,0,0,1.26,1.44,4.58,4.58,0,0,0,1.94,1.17A13.06,13.06,0,0,0,268,388C269.13,388,269.78,387.74,269.8,387.8Z" transform="translate(-253.77 -368.94)"/><path class="cls-13" d="M265.09,369.27a10.77,10.77,0,0,0-2.11,1.2,11.85,11.85,0,0,0-1.82,1.89,10.33,10.33,0,0,0-1.6,2.77,19.78,19.78,0,0,0-1.27,5.72c-.13,1.51,0,2.45-.12,2.45a1.76,1.76,0,0,1-.13-.65,13.08,13.08,0,0,1-.07-1.82,17.23,17.23,0,0,1,1.18-5.87,9.66,9.66,0,0,1,1.69-2.86,11.38,11.38,0,0,1,2-1.89,5.5,5.5,0,0,1,1.64-.82A1.79,1.79,0,0,1,265.09,369.27Z" transform="translate(-253.77 -368.94)"/><path class="cls-6" d="M260.12,381.17a3.33,3.33,0,0,0-1.27-.41,1.6,1.6,0,0,0-.87.09,1.11,1.11,0,0,0-.55,1,1.92,1.92,0,0,0,.48,1.11,1.58,1.58,0,0,0,.54.46,2,2,0,0,0,.69.16,3.14,3.14,0,0,0,1.61-.15l.18-1.27A1.84,1.84,0,0,0,260.12,381.17Z" transform="translate(-253.77 -368.94)"/><path class="cls-14" d="M259.73,382.8c-.1.08-.4-.13-.72-.41s-.56-.57-.49-.67.44,0,.79.33S259.82,382.73,259.73,382.8Z" transform="translate(-253.77 -368.94)"/><path class="cls-14" d="M258.56,383.12c-.11-.07.06-.47.36-.91s.64-.74.73-.66-.06.49-.36.91S258.67,383.18,258.56,383.12Z" transform="translate(-253.77 -368.94)"/><path class="cls-15" d="M273.65,383.66" transform="translate(-253.77 -368.94)"/><path class="cls-16" d="M271.83,410.15c0,.05-.21.2-.6.38a4.8,4.8,0,0,1-1.65.47l.21-.23v.13a5,5,0,0,1-.28,2.49,12.09,12.09,0,0,1-.17-2.47v-.35h.21a9.63,9.63,0,0,0,1.59-.32C271.54,410.13,271.8,410.09,271.83,410.15Z" transform="translate(-253.77 -368.94)"/><path class="cls-16" d="M266.94,407.94a3.45,3.45,0,0,1-1.67,1.55,2.85,2.85,0,0,1-1.63.3c-.43-.06-.65-.22-.63-.27a5.36,5.36,0,0,0,2.06-.44C266.1,408.54,266.84,407.83,266.94,407.94Z" transform="translate(-253.77 -368.94)"/><path class="cls-16" d="M262.71,413.9a4.16,4.16,0,0,1,0-1.9,4.08,4.08,0,0,1,.43-1.85,8.15,8.15,0,0,1-.42,3.75Z" transform="translate(-253.77 -368.94)"/><path class="cls-16" d="M263.41,411.46c0,.12-.28.16-.6.08s-.53-.25-.48-.36.32-.15.6-.08S263.43,411.34,263.41,411.46Z" transform="translate(-253.77 -368.94)"/><ellipse class="cls-16" cx="9.07" cy="43.27" rx="0.71" ry="0.23"/><path class="cls-16" d="M263.16,413.08c0,.13-.21.22-.5.2s-.49-.13-.47-.25.24-.21.5-.2S263.16,413,263.16,413.08Z" transform="translate(-253.77 -368.94)"/><path class="cls-17" d="M268.9,390.26a28.23,28.23,0,0,1,4.22,9.26c1.21,5.19,2,7.33,0,9.27,0,0-1.72-1.75-1.83-3.15,0,0-.12,3.28-.74,3.77a6.27,6.27,0,0,1-4.82-.88,6.42,6.42,0,0,0-4.38-1.22s1.62-6.27,1.77-8.23c0,0-2.55,0-3.29-.78,0,0,3.17-7,4.66-8.38,1.13-1.06,3.79,1.26,4.38,3C268.87,392.9,268.48,390.82,268.9,390.26Z" transform="translate(-253.77 -368.94)"/><path class="cls-18" d="M266.06,406.11a3.77,3.77,0,0,0,2.47-2.32c.23-.78.16-1.68.67-2.31a4.48,4.48,0,0,1,1.24-.85,5,5,0,0,0,2-2.33c0-.13.09-.29,0-.39a.36.36,0,0,0-.2-.08,2.69,2.69,0,0,0-1.58.21c-.6.29-1.12.8-1.78.83a2.43,2.43,0,0,1-1.77-1.06,3.38,3.38,0,0,0-1.65-1.29v1.94a1.24,1.24,0,0,1-.05.47,1.19,1.19,0,0,1-.42.47,6.21,6.21,0,0,1-2.09,1c-.32,1.78-.95,4.39-1.31,5.84l.95.09A8.22,8.22,0,0,0,266.06,406.11Z" transform="translate(-253.77 -368.94)"/><path class="cls-18" d="M264.4,389.11a4.7,4.7,0,0,0-.83,1.62.8.8,0,0,0,0,.53.73.73,0,0,0,.25.3l1.54,1.35a3.87,3.87,0,0,1,.1-1.59,1.7,1.7,0,0,1,.33-.69,1.61,1.61,0,0,1,1-.34A13.52,13.52,0,0,0,264.4,389.11Z" transform="translate(-253.77 -368.94)"/><path class="cls-18" d="M270,389.59a.38.38,0,0,0-.24-.25.49.49,0,0,0-.46.18,1.48,1.48,0,0,0-.39.74,7.72,7.72,0,0,1,.83,1.53A7.07,7.07,0,0,0,270,390,1.14,1.14,0,0,0,270,389.59Z" transform="translate(-253.77 -368.94)"/><path class="cls-19" d="M269.42,392.68a19.26,19.26,0,0,1,.41-2.4c0-.33.05-.66-.06-.71s0-.05-.14,0l-.25.23c-.29.31-.45.54-.51.51s0-.32.27-.71a1.87,1.87,0,0,1,.24-.31.49.49,0,0,1,.62-.07.68.68,0,0,1,.3.56,3.09,3.09,0,0,1,0,.53A4.33,4.33,0,0,1,269.42,392.68Z" transform="translate(-253.77 -368.94)"/><path class="cls-19" d="M270.55,409.41c-.06,0,.22-.58.35-1.58a26.79,26.79,0,0,0,.2-3.9c0-1.54-.08-2.93-.14-3.93a9.69,9.69,0,0,1-.06-1.64c.16,0,.64,2.46.65,5.57a17.66,17.66,0,0,1-.34,4A2.75,2.75,0,0,1,270.55,409.41Z" transform="translate(-253.77 -368.94)"/><circle class="cls-20" cx="16.47" cy="37.42" r="0.36"/><path class="cls-20" d="M270.9,403.45a.36.36,0,1,1-.71,0,.36.36,0,0,1,.71,0Z" transform="translate(-253.77 -368.94)"/><circle class="cls-20" cx="16.47" cy="31.86" r="0.36"/><path class="cls-20" d="M268.34,392.91a.36.36,0,0,1-.71,0,.36.36,0,1,1,.71,0Z" transform="translate(-253.77 -368.94)"/><circle class="cls-20" cx="15.1" cy="26.54" r="0.35"/><path class="cls-19" d="M269.73,395.47c-.12,0-.3-.73-.68-1.61s-.65-1.62-.54-1.68.58.6,1,1.52S269.86,395.47,269.73,395.47Z" transform="translate(-253.77 -368.94)"/><path class="cls-21" d="M307.21,377.28a4.08,4.08,0,0,0-1.44-2.75,3.37,3.37,0,0,0-3-.67,2.87,2.87,0,0,0-2,2.22,6.05,6.05,0,0,0-1.89-2.41,8.67,8.67,0,0,0-1.16-.94,7.25,7.25,0,0,0-5-.88,9.21,9.21,0,0,0-6,3.26,3.07,3.07,0,0,0-.79,2.09,1.43,1.43,0,0,0,1.53,1.35c-.23,6.43,7.63,8.06,8.75,8a4.81,4.81,0,0,0,3.6-2.19,10.63,10.63,0,0,0,1.49-4.07,7.59,7.59,0,0,0,3.05.44,3.32,3.32,0,0,0,2.57-1.53A3.37,3.37,0,0,0,307.21,377.28Z" transform="translate(-253.77 -368.94)"/><path class="cls-18" d="M301.37,380.41c-.26,0-.44-1-.63-2.26s-.31-2.27-.07-2.35.76.9,1,2.22S301.61,380.42,301.37,380.41Z" transform="translate(-253.77 -368.94)"/><path class="cls-22" d="M297.68,383.15a6.09,6.09,0,0,0-.16-2.36,14.48,14.48,0,0,0-1-3.32,5.23,5.23,0,0,0-2.31-2.51,5.08,5.08,0,0,0-1.63-.46,4.28,4.28,0,0,0-2.13.22,4.92,4.92,0,0,0-2.23,2.21,12,12,0,0,0-1.55,4.73,6.78,6.78,0,0,0,.17,2.62,3.45,3.45,0,0,0,1.57,2,4.59,4.59,0,0,0,1.71.47,19,19,0,0,0,2.5.14c0,.41.06.82.1,1.23l-3.07,1.24a4.75,4.75,0,0,0,2.28,2.17,5.4,5.4,0,0,0,2,.25,4.37,4.37,0,0,0,1.3-.15,5,5,0,0,0,2.25-2.06l-2.27-1.3s0-.91,0-1.51a3.56,3.56,0,0,0,2.11-1.32s2.45,0,2.45-1.49S298.17,382.73,297.68,383.15Z" transform="translate(-253.77 -368.94)"/><path class="cls-23" d="M297.3,385.47s2.45,0,2.45-1.49-1.58-1.25-2.07-.83a6.09,6.09,0,0,0-.16-2.36,14.48,14.48,0,0,0-1-3.32,7.05,7.05,0,0,0-.63-1.06l.59,1.35a5.45,5.45,0,0,1,.49,1.51,2.74,2.74,0,0,1-.69,2.13c-.52.56-1.33,1-1.35,1.77,0,.57.44,1,.63,1.56a1.87,1.87,0,0,1-1.13,2.34,2,2,0,0,0-.55.22c-.45.34-.24,1-.34,1.6-.14.82-1,1.3-1.79,1.54-.36.11-.73.2-1.1.28a3.63,3.63,0,0,0,1.28.85,4.1,4.1,0,0,0,.77.18,8,8,0,0,0,1.19.07,4.37,4.37,0,0,0,1.3-.15,5,5,0,0,0,2.25-2.06l-.08-.05-2.19-1.25s0-.91,0-1.51A3.56,3.56,0,0,0,297.3,385.47Z" transform="translate(-253.77 -368.94)"/><path class="cls-24" d="M290.06,377.78c-.1.17-.71,0-1.39.14a3.71,3.71,0,0,0-.86.31,1.16,1.16,0,0,1-.27.11.25.25,0,0,0-.14,0,.1.1,0,0,1-.08,0,.21.21,0,0,1,0-.16.9.9,0,0,1,.18-.35,1.88,1.88,0,0,1,2.23-.47C290,377.52,290.1,377.7,290.06,377.78Z" transform="translate(-253.77 -368.94)"/><path class="cls-24" d="M296.17,379.23c-.19.06-.53-.47-1.14-.76s-1.22-.29-1.28-.48.12-.23.42-.31a1.74,1.74,0,0,1,1.19.15,1.77,1.77,0,0,1,.82.87C296.29,379,296.26,379.19,296.17,379.23Z" transform="translate(-253.77 -368.94)"/><path class="cls-25" d="M291.53,378.32s.9,2.73.22,3.48-1.5.41-1.07-.75S291.53,378.32,291.53,378.32Z" transform="translate(-253.77 -368.94)"/><path class="cls-26" d="M288.63,379.83c0,.31-.22.55-.46.54a.58.58,0,0,1,.05-1.12A.51.51,0,0,1,288.63,379.83Z" transform="translate(-253.77 -368.94)"/><path class="cls-26" d="M295.08,380.43a.45.45,0,1,1-.4-.58C294.91,379.86,295.09,380.12,295.08,380.43Z" transform="translate(-253.77 -368.94)"/><path class="cls-27" d="M299,384.7c-.1.08-.39-.13-.71-.42s-.56-.56-.5-.67.45,0,.8.34S299.05,384.62,299,384.7Z" transform="translate(-253.77 -368.94)"/><path class="cls-27" d="M297.79,385c-.11-.06,0-.47.36-.91s.63-.73.73-.65-.07.49-.36.91S297.9,385.07,297.79,385Z" transform="translate(-253.77 -368.94)"/><path class="cls-28" d="M291.42,383.14l1.77-.46s.35,1.78-.35,2S291.42,383.14,291.42,383.14Z" transform="translate(-253.77 -368.94)"/><path class="cls-29" d="M291.7,383.06a.81.81,0,0,0,.3.25.88.88,0,0,0,.71,0,1.81,1.81,0,0,0,.46-.32l.06-.06c0-.17,0-.27,0-.27Z" transform="translate(-253.77 -368.94)"/><path class="cls-30" d="M290.55,402.22c-.05,0-.08-.2-.11-.56a13.66,13.66,0,0,0-.16-1.47,9,9,0,0,0-.77-2,9.08,9.08,0,0,1-1-2.65,7.77,7.77,0,0,1,.07-2.86,9.51,9.51,0,0,1,.73-2.19c.56-1.18,1.06-1.8,1.14-1.76a10.4,10.4,0,0,1-.68,2,13.24,13.24,0,0,0-.55,2.12,8.2,8.2,0,0,0,0,2.62,10.12,10.12,0,0,0,.87,2.5,7.23,7.23,0,0,1,.67,2.22,6.65,6.65,0,0,1,0,1.56C290.66,402,290.6,402.23,290.55,402.22Z" transform="translate(-253.77 -368.94)"/><path class="cls-30" d="M295.16,401.71c-.05,0,0-.24,0-.61a6.07,6.07,0,0,0-.07-1.59,16.13,16.13,0,0,1-.33-2.47,10,10,0,0,1,.46-3.07,21.07,21.07,0,0,1,1.09-2.84,7.24,7.24,0,0,0,.47-1.16,1.35,1.35,0,0,0,0-.94,1.06,1.06,0,0,0-.57-.51,1.47,1.47,0,0,0-.67,0l-.37-.21v-.17s0,0,.42-.07a2.17,2.17,0,0,1,.76.09,2.07,2.07,0,0,1,.46.21,1.27,1.27,0,0,1,.42.44,1.88,1.88,0,0,1,.17,1.29,7,7,0,0,1-.45,1.29c-.34.86-.72,1.79-1,2.79a11,11,0,0,0-.49,2.87,23.78,23.78,0,0,0,.18,2.41,4.67,4.67,0,0,1-.15,1.71C295.35,401.55,295.2,401.73,295.16,401.71Z" transform="translate(-253.77 -368.94)"/><path class="cls-31" d="M296.41,402a1,1,0,0,0-.13-.5.92.92,0,0,0-.72-.26h-.89a.47.47,0,0,1-.24,0,.4.4,0,0,1-.13-.16,4.21,4.21,0,0,1-.31-.73,8.29,8.29,0,0,0-2.11.06l-.19.73q-.45,0-.9,0a.78.78,0,0,0-.78.88c0,.12.21,3.44.21,3.44.75.47,6.33-.11,6.38-.43C296.6,404.94,296.48,403,296.41,402Z" transform="translate(-253.77 -368.94)"/><path class="cls-30" d="M291.68,402c-.2,0-1.13-.14-1.45-.14a1.73,1.73,0,1,0,0,3.45c.32,0,1.08-.11,1.45-.15a1.63,1.63,0,0,0,1.58-1.58A1.58,1.58,0,0,0,291.68,402Z" transform="translate(-253.77 -368.94)"/><path class="cls-21" d="M291.25,404.61a1.45,1.45,0,0,1-2.05-2.06,1.45,1.45,0,0,1,2.05,2.06Z" transform="translate(-253.77 -368.94)"/><path class="cls-31" d="M289,404.79c.05-.06.29.16.73.26a1.64,1.64,0,0,0,2-2c-.11-.45-.32-.68-.27-.73s.35.12.57.63a1.84,1.84,0,0,1-.41,2,1.86,1.86,0,0,1-2,.42C289.07,405.13,288.91,404.81,289,404.79Z" transform="translate(-253.77 -368.94)"/><path class="cls-30" d="M295.33,404.86c-.12,0-.29-.64-.38-1.48s-.06-1.52.06-1.53.3.65.39,1.48S295.46,404.85,295.33,404.86Z" transform="translate(-253.77 -368.94)"/><path class="cls-30" d="M296.34,402.27c0,.12-.16.26-.41.26s-.43-.14-.41-.27.21-.18.41-.18S296.31,402.15,296.34,402.27Z" transform="translate(-253.77 -368.94)"/><path class="cls-30" d="M296.34,402.84c0,.12-.15.23-.34.25s-.36-.08-.37-.2.13-.24.33-.25S296.33,402.71,296.34,402.84Z" transform="translate(-253.77 -368.94)"/><path class="cls-30" d="M296.46,403.54c0,.12-.13.25-.33.27s-.36,0-.38-.17.13-.24.32-.27S296.44,403.42,296.46,403.54Z" transform="translate(-253.77 -368.94)"/><path class="cls-30" d="M293.57,400.8s0,0,0,0a.07.07,0,0,0-.06,0l-1.21,0a1.43,1.43,0,0,1-.15.39l1.58,0Z" transform="translate(-253.77 -368.94)"/><path class="cls-32" d="M289.53,403.17c.27-.36.57-.69.85-1a1.45,1.45,0,0,0-1.52,1.94C289.08,403.77,289.31,403.47,289.53,403.17Z" transform="translate(-253.77 -368.94)"/><path class="cls-32" d="M290.43,403.69c-.3.39-.59.78-.87,1.18a1.45,1.45,0,0,0,1.75-2.25C291,403,290.71,403.31,290.43,403.69Z" transform="translate(-253.77 -368.94)"/><path class="cls-22" d="M297.78,393.83a14.15,14.15,0,0,0-3.36-.77,6.71,6.71,0,0,0-3.72.2c-.48.2-1,.62-.9,1.14a7.38,7.38,0,0,1,1.75-.24,1.22,1.22,0,0,0-.29.79.57.57,0,0,0,.54.55.86.86,0,0,0,.44-.21.49.49,0,0,0,.57.39.89.89,0,0,0,.59-.45.32.32,0,0,1,.13-.15.33.33,0,0,1,.17,0c2.74.33,5.25,1.95,8,2a2,2,0,0,0,1.75-.73,1.82,1.82,0,0,0,.06-1.3,6.26,6.26,0,0,0-1.56-2.72,7.48,7.48,0,0,0-4.2-2.45A3.59,3.59,0,0,0,297.78,393.83Z" transform="translate(-253.77 -368.94)"/><path class="cls-27" d="M300.9,395.19a15,15,0,0,1-1.39-.73,12.28,12.28,0,0,0-3.59-1.07,31,31,0,0,0-3.78-.28,11.5,11.5,0,0,0-1.55.14,2.32,2.32,0,0,1,1.54-.46A19.11,19.11,0,0,1,296,393a10,10,0,0,1,3.67,1.23A3.44,3.44,0,0,1,300.9,395.19Z" transform="translate(-253.77 -368.94)"/><path class="cls-33" d="M274.33,382.68a12.37,12.37,0,0,1-3.39,3.07s4.17,8.81,3.39,15.68C274.33,401.43,278,391.77,274.33,382.68Z" transform="translate(-253.77 -368.94)"/><path class="cls-34" d="M277.72,382.68s-4.26,2.73-6.78,3.07a40.25,40.25,0,0,1,3.39,16s3,.25,3.68,1.22C279.46,402.67,283.41,390.56,277.72,382.68Z" transform="translate(-253.77 -368.94)"/><path class="cls-34" d="M286.56,382l3.57-2.21s2.12,13-1.1,22.26l-4.71,1.74Z" transform="translate(-253.77 -368.94)"/><path class="cls-33" d="M286.56,382l-8.84.66s2.18,11.14.29,20.32l6.31.81S287.77,392.19,286.56,382Z" transform="translate(-253.77 -368.94)"/><path class="cls-35" d="M279.77,384.47a1,1,0,0,1,1-1,1.06,1.06,0,0,1,.45.1v.3a.69.69,0,0,0-.45-.15.75.75,0,0,0,0,1.49.69.69,0,0,0,.45-.15v.3a1.06,1.06,0,0,1-.45.1A1,1,0,0,1,279.77,384.47Z" transform="translate(-253.77 -368.94)"/><path class="cls-35" d="M281.55,383.51h.26v1.92h-.26Z" transform="translate(-253.77 -368.94)"/><path class="cls-35" d="M283.3,383.77h-.48v1.66h-.26v-1.66h-.48v-.26h1.22Z" transform="translate(-253.77 -368.94)"/><path class="cls-35" d="M284.26,384.75v.68H284v-.67l-.65-1.25h.29l.49,1,.49-1h.29Z" transform="translate(-253.77 -368.94)"/><path class="cls-35" d="M281.53,387.85l-.27-1.24-.54,1.26h0l-.53-1.24-.25,1.22h-.27l.42-2h0l.6,1.46.61-1.46h0l.44,2Z" transform="translate(-253.77 -368.94)"/><path class="cls-35" d="M283.11,387.44h-.83l-.17.41h-.28l.84-2h0l.85,2h-.28Zm-.11-.25-.3-.75-.31.75Z" transform="translate(-253.77 -368.94)"/><path class="cls-35" d="M284.9,386.53a.59.59,0,0,1-.65.61H284v.71h-.26v-1.92h.47A.61.61,0,0,1,284.9,386.53Zm-.26,0a.36.36,0,0,0-.4-.35H284v.71h.2A.36.36,0,0,0,284.64,386.53Z" transform="translate(-253.77 -368.94)"/><path class="cls-36" d="M279.24,388.65a46.34,46.34,0,0,1,.18,5.18h6.11a41.33,41.33,0,0,0,.47-5.18Z" transform="translate(-253.77 -368.94)"/><path class="cls-37" d="M279.7,390.75l.11,0c.13-.06.12-.23.1-.37s0-.31.11-.35.25.09.37.06.16-.18.17-.31a.56.56,0,0,0-.06-.34c-.12-.16-.37-.12-.56-.06s-.41.14-.57,0a.34.34,0,0,1-.08-.09c0,.51.09,1.29.12,2.08l.09,0C279.67,391.2,279.51,390.84,279.7,390.75Z" transform="translate(-253.77 -368.94)"/><path class="cls-37" d="M286,388.65h-4.17a2.9,2.9,0,0,0-.29.19.24.24,0,0,0-.09.11c-.07.13.07.29.22.33a1.65,1.65,0,0,1,.45.11.18.18,0,0,1,.1.14.31.31,0,0,1-.05.1,1.54,1.54,0,0,1-.34.28.63.63,0,0,0-.27.33.26.26,0,0,0,.19.33.45.45,0,0,0,.2,0,2.59,2.59,0,0,1,.45-.14.31.31,0,0,1,.19,0c.22.11,0,.54.18.68s.24,0,.35-.05a.84.84,0,0,1,.59-.12.39.39,0,0,1,.3.45.59.59,0,0,1-.25.27l-.4.29a1.06,1.06,0,0,1-.21.11.8.8,0,0,1-.43,0,4.48,4.48,0,0,0-1.82-.13,1.05,1.05,0,0,0-.65.26.32.32,0,0,0-.1.18c0,.23.26.36.49.36s.49,0,.66.12a.45.45,0,0,0,.13.11c.14.08.34-.07.46,0s.09.24.2.29.13,0,.19,0,.2.15.21.27-.05.24-.06.36h1.7c.06-.15.13-.3.18-.45a.89.89,0,0,1,.37-.56,1.28,1.28,0,0,1,.28-.07,3.5,3.5,0,0,0,.46-.14l.29-.11A29.31,29.31,0,0,0,286,388.65Z" transform="translate(-253.77 -368.94)"/><circle class="cls-33" cx="27.67" cy="31.5" r="0.52"/><path class="cls-38" d="M282,394.57c0,.12-.5.23-1.14.25s-1.14-.07-1.14-.2.51-.24,1.13-.25S282,394.44,282,394.57Z" transform="translate(-253.77 -368.94)"/><path class="cls-38" d="M281.85,395.45c0,.12-.5.23-1.13.25s-1.14-.07-1.14-.2.5-.23,1.13-.25S281.85,395.32,281.85,395.45Z" transform="translate(-253.77 -368.94)"/><path class="cls-38" d="M281.75,396.33c0,.12-.5.24-1.13.25s-1.15-.07-1.15-.2.51-.23,1.14-.25S281.74,396.2,281.75,396.33Z" transform="translate(-253.77 -368.94)"/><path class="cls-38" d="M281.65,397.21c0,.12-.5.24-1.14.25s-1.14-.07-1.14-.19.51-.24,1.13-.26S281.64,397.08,281.65,397.21Z" transform="translate(-253.77 -368.94)"/><path class="cls-38" d="M281.54,398.09c0,.12-.5.24-1.13.25s-1.14-.07-1.14-.19.5-.24,1.13-.26S281.54,398,281.54,398.09Z" transform="translate(-253.77 -368.94)"/><path class="cls-38" d="M281.44,399c0,.13-.5.24-1.13.26s-1.15-.08-1.15-.2.51-.24,1.14-.25S281.43,398.85,281.44,399Z" transform="translate(-253.77 -368.94)"/><path class="cls-38" d="M285,394.57c0,.12-.5.23-1.13.25s-1.15-.07-1.15-.2.51-.24,1.14-.25S285,394.44,285,394.57Z" transform="translate(-253.77 -368.94)"/><path class="cls-38" d="M284.86,395.45c0,.12-.5.23-1.14.25s-1.14-.07-1.14-.2.51-.23,1.13-.25S284.85,395.32,284.86,395.45Z" transform="translate(-253.77 -368.94)"/><path class="cls-38" d="M284.75,396.33c0,.12-.5.24-1.13.25s-1.14-.07-1.14-.2.5-.23,1.13-.25S284.75,396.2,284.75,396.33Z" transform="translate(-253.77 -368.94)"/><path class="cls-38" d="M284.65,397.21c0,.12-.5.24-1.13.25s-1.15-.07-1.15-.19.51-.24,1.14-.26S284.64,397.08,284.65,397.21Z" transform="translate(-253.77 -368.94)"/><path class="cls-38" d="M284.55,398.09c0,.12-.5.24-1.14.25s-1.14-.07-1.14-.19.51-.24,1.13-.26S284.54,398,284.55,398.09Z" transform="translate(-253.77 -368.94)"/><path class="cls-38" d="M284.44,399c0,.13-.5.24-1.13.26s-1.14-.08-1.14-.2.5-.24,1.13-.25S284.44,398.85,284.44,399Z" transform="translate(-253.77 -368.94)"/><path class="cls-38" d="M283.72,401.9a6.74,6.74,0,0,1-2.48,0,7.09,7.09,0,0,1-2.44-.42,7,7,0,0,1,2.48,0A7.09,7.09,0,0,1,283.72,401.9Z" transform="translate(-253.77 -368.94)"/><path class="cls-38" d="M283.72,402.58a7,7,0,0,1-2.48,0,7.09,7.09,0,0,1-2.44-.42,6.74,6.74,0,0,1,2.48,0A7.09,7.09,0,0,1,283.72,402.58Z" transform="translate(-253.77 -368.94)"/><path class="cls-6" d="M276,394c0-.21-.26-.3-.47-.32a7.4,7.4,0,0,0-1.63,0,5,5,0,0,0,1.56-.39c.15-.09.32-.23.3-.4s-.51-.41-1.15-.41-1.35.06-2,.09a10,10,0,0,1-4.81,4.93c-2.09,1.08-3.4,1.86-6.9,1.29a16,16,0,0,0-.16,4.58c3.42-.35,6.5-2.25,9.14-4.46a30,30,0,0,0,2.55-2.74s1.36-.21,2-.29,1.34-.06,1.34-.42-.23-.42-.55-.43L273,395a8.86,8.86,0,0,0,2.64-.58C275.78,394.34,276,394.23,276,394Z" transform="translate(-253.77 -368.94)"/><path class="cls-39" d="M260.85,398.81a0,0,0,0,1-.06,0,.16.16,0,0,1,0-.06v-.06h0l.22,0h0a.13.13,0,0,1-.14.11.12.12,0,0,1-.08-.15h0l.22,0h0l0,0Z" transform="translate(-253.77 -368.94)"/><path class="cls-19" d="M265.46,396.1a9.9,9.9,0,0,1,.36,2.44v.14l-.16.05a8.27,8.27,0,0,1-1.83.34,10.67,10.67,0,0,1-3.06-.17c-.8-.21-1.13-.65-1.09-.68a8.39,8.39,0,0,0,1.16.37,15.6,15.6,0,0,0,2.95,0,9,9,0,0,0,1.76-.28l-.15.19A8.51,8.51,0,0,1,265.46,396.1Z" transform="translate(-253.77 -368.94)"/><path class="cls-14" d="M274.41,395.9a9.62,9.62,0,0,1-2,.44l.09,0c-.46.58-1,1.28-1.74,2a17.4,17.4,0,0,1-2.59,2.18,16.39,16.39,0,0,1-5.13,2.56,10.11,10.11,0,0,1-1.71.34,1.88,1.88,0,0,1-.64,0c0-.08.89-.16,2.26-.63a18.86,18.86,0,0,0,5-2.63,20.23,20.23,0,0,0,2.56-2.09c.7-.72,1.31-1.4,1.8-1.94l0-.05h.05A9.77,9.77,0,0,1,274.41,395.9Z" transform="translate(-253.77 -368.94)"/></svg>